<?xml version="1.0" encoding="utf-8"?>
<!-- Generator: Adobe Illustrator 18.1.1, SVG Export Plug-In . SVG Version: 6.00 Build 0)  -->
<!DOCTYPE svg PUBLIC "-//W3C//DTD SVG 1.0//EN" "http://www.w3.org/TR/2001/REC-SVG-20010904/DTD/svg10.dtd" [
	<!ENTITY ns_extend "http://ns.adobe.com/Extensibility/1.0/">
	<!ENTITY ns_ai "http://ns.adobe.com/AdobeIllustrator/10.0/">
	<!ENTITY ns_graphs "http://ns.adobe.com/Graphs/1.0/">
	<!ENTITY ns_vars "http://ns.adobe.com/Variables/1.0/">
	<!ENTITY ns_imrep "http://ns.adobe.com/ImageReplacement/1.0/">
	<!ENTITY ns_sfw "http://ns.adobe.com/SaveForWeb/1.0/">
	<!ENTITY ns_custom "http://ns.adobe.com/GenericCustomNamespace/1.0/">
	<!ENTITY ns_adobe_xpath "http://ns.adobe.com/XPath/1.0/">
]>

<svg version="1.1" id="Layer_1" xmlns:x="&ns_extend;" xmlns:i="&ns_ai;" xmlns:graph="&ns_graphs;"
	 xmlns="http://www.w3.org/2000/svg" xmlns:xlink="http://www.w3.org/1999/xlink" x="0px" y="0px" width="347.8px" height="347.8px"
	 viewBox="0 0 347.8 347.8" enable-background="new 0 0 347.8 347.8" xml:space="preserve">
    
    <g id="restart" style="display:none">
			<path fill="#357180" d="M10,150.002C10,72.673,72.681,9.999,149.998,9.999C227.319,9.999,290,72.673,290,150.002
				c0,77.315-62.681,140-140.002,140C72.681,290.001,10,227.316,10,150.002z"/>

	<path fill="#F7F7F7" d="M236.192,105.697c-1.414-2.746-8.294-9.034-19.899-3.322c-11.605,5.712-5.999,18.255-5.999,18.255
		c4.326,8.872,6.761,18.833,6.761,29.372c0,37.033-30.021,67.057-67.056,67.057c-37.031,0-67.054-30.023-67.054-67.057
		c0-34.664,26.297-63.175,60.021-66.691v17.378c0,0-0.048,1.038,1.03,1.692c1.077,0.656,2.155,0,2.155,0l55.63-32.778
		c0,0,1.25-0.656,1.25-1.936c0-1.06-1.25-1.811-1.25-1.811l-55.443-32.592c0,0-1.265-0.905-2.39-0.466
		c-1.123,0.436-0.982,1.967-0.982,1.967v18.618c-50.225,3.607-89.861,45.466-89.861,96.62c0,53.513,43.382,96.894,96.894,96.894
		c53.515,0,96.899-43.382,96.899-96.894C246.897,134.031,243.03,118.973,236.192,105.697z"/>
</g>
    
    <g id="ambulance" style="display:none">			
					<path fill="#F7F2F3" d="M238.192,186.562c0,8.83-18.486,15.987-27.313,15.987l-55.96-0.248v-84.605
						c0-8.83,6.365-15.784,17.32-15.99c10.956-0.205,26.457,9.806,34.174,16.867C227.813,138.153,238.192,186.562,238.192,186.562z"
						/>
					<path fill="#9DDAEC" d="M215.748,147.031l-49.854,0.128V118.92c0-7.202,4.364-10.187,9.923-9.136
						c5.559,1.054,18.718,7.698,25.134,14.482C212.789,136.787,215.748,147.031,215.748,147.031z"/>
					<path fill="#F7F2F3" d="M166.163,206.062H36.369c-11.729,0-13.562-9.513-13.562-21.239v-81.057
						c0-11.732,9.51-15.618,21.239-15.618h100.877c11.729,0,21.239,3.887,21.239,15.618V206.062z"/>
					<path fill="#EDC92C" d="M144.953,87.99h-10.928v-9.104c0-3.02,2.446-5.469,5.465-5.469l0,0c3.017,0,5.463,2.449,5.463,5.469
						V87.99z"/>
					<path fill="#F37C2A" d="M139.661,87.99h-5.635v-9.104c0-3.02,2.446-5.469,5.465-5.469l0,0L139.661,87.99z"/>
					<path fill="#F7F2F3" d="M277.544,193.572c0,6.896-5.594,12.49-12.492,12.49h-72.342c-6.898,0-12.492-5.594-12.492-12.49
						v-33.449c0-6.896,5.594-12.49,12.492-12.49l72.342,8.134c6.898,0,12.492,5.596,12.492,12.489V193.572z"/>
					<path fill="#EFECEC" d="M277.43,200.081c0,3.641-2.953,6.594-6.592,6.594H30.453c-3.641,0-6.592-2.953-6.592-6.594v-3.657
						c0-3.638,253.569-3.638,253.569,0V200.081z"/>
					
						
							<circle fill="#202121" cx="82.962" cy="204.533" r="22.049"/>
						
						<path fill="#5E5F5E" d="M96.083,204.533c0,7.243-5.871,13.117-13.116,13.117c-7.243,0-13.122-5.874-13.122-13.117
							c0-7.248,5.879-13.114,13.122-13.114C90.212,191.419,96.083,197.285,96.083,204.533z"/>
						<path fill="#A19F9F" d="M87.867,204.533c0,2.705-2.193,4.9-4.9,4.9c-2.71,0-4.908-2.195-4.908-4.9
							c0-2.713,2.198-4.906,4.908-4.906C85.674,199.627,87.867,201.82,87.867,204.533z"/>
					
					
						
							<circle fill="#202121" cx="236.967" cy="204.533" r="22.049"/>
						
						<path fill="#5E5F5E" d="M250.087,204.533c0,7.243-5.871,13.117-13.116,13.117c-7.245,0-13.122-5.874-13.122-13.117
							c0-7.248,5.876-13.114,13.122-13.114C244.216,191.419,250.087,197.285,250.087,204.533z"/>
						<path fill="#A19F9F" d="M241.871,204.533c0,2.705-2.193,4.9-4.9,4.9c-2.713,0-4.908-2.195-4.908-4.9
							c0-2.713,2.195-4.906,4.908-4.906C239.678,199.627,241.871,201.82,241.871,204.533z"/>
					
				
				<rect x="22.338" y="171.247" fill="#D62127" width="255.324" height="7.376"/>
			
			
				<path fill="#D62127" d="M73.011,108.002l-1.086,0.005l-1.086-0.005c-1.819,0-5.21,0-5.21,3.879v42.982
					c0,3.881,3.39,3.881,5.21,3.881l1.086-0.005l1.083,0.005c1.211,0,2.377-0.04,3.348-0.515c0.851-0.413,1.867-1.334,1.867-3.366
					V111.88C78.223,108.002,74.702,108.002,73.011,108.002z"/>
				<path fill="#D62127" d="M95.163,123.129l-0.485-0.968l-0.475-0.982c-0.806-1.63-2.305-4.668-5.781-2.956l-38.554,18.999
					c-3.481,1.718-1.982,4.759-1.179,6.389l0.486,0.974l0.472,0.976c0.536,1.083,1.089,2.11,1.945,2.772
					c0.747,0.584,2.022,1.088,3.844,0.189l38.552-19.004C97.467,127.803,95.91,124.642,95.163,123.129z"/>
				<path fill="#D62127" d="M94.128,145.71l0.48-0.971l0.488-0.968c0.816-1.63,2.334-4.658-1.134-6.397L55.539,118.12
					c-3.47-1.744-4.991,1.288-5.805,2.911l-0.486,0.979l-0.485,0.963c-0.541,1.083-1.03,2.145-1.04,3.222
					c-0.013,0.95,0.355,2.273,2.172,3.18l38.426,19.257C91.791,150.373,93.367,147.22,94.128,145.71z"/>	
</g>
    
    <g id="alcohol" style="display:none">			
					<path fill="#DDDFE0" d="M16.327,5.332C15.076,18.14,13.023,42.11,29.641,43.733C46.257,45.355,48.88,21.44,50.13,8.632
						C50.635,3.464,16.902-0.555,16.327,5.332z"/>
				
			
			
				
					
						<ellipse transform="matrix(0.9953 0.0972 -0.0972 0.9953 8.6646 -2.0227)" fill="#CECFD0" cx="25.098" cy="87.941" rx="14.021" ry="5.85"/>
				
			
			
				
					
						<ellipse transform="matrix(0.9953 0.0972 -0.0972 0.9953 8.6141 -2.0301)" fill="#D7D7D7" cx="25.149" cy="87.418" rx="14.021" ry="5.323"/>
				
			
			
				
					<path fill="#E3E4E5" d="M29.141,87.433c0,0-0.701-20.549-0.052-27.195c0.649-6.649,2.39-14.767,2.39-14.767l-4.376-0.427
						c0,0,0.063,9.063-0.512,14.951c-0.575,5.888-5.312,26.672-5.312,26.672s1.148,1.617,3.835,1.879
						C27.802,88.807,29.141,87.433,29.141,87.433z"/>
				
			
			
				
					<polygon fill="#E3E4E5" points="34.115,43.015 25.011,42.126 27.194,45.252 31.368,45.66 					"/>
				
			
			
				
					<path fill="#DFE0E1" d="M49.589,9.06c-1.214,12.435-34.028,9.231-32.814-3.204C17.333,0.141,50.079,4.042,49.589,9.06z"/>
				
			
			
				
					<path fill="#E8EAEB" d="M49.589,9.06c-1.214,12.435-3.759,35.653-19.89,34.077C13.567,41.563,15.561,18.291,16.775,5.857
						c0,0,3.647,2.421,16.72,3.698C46.57,10.831,49.589,9.06,49.589,9.06z"/>
				
			
			
				
					<path fill="#E8EAEB" d="M49.589,9.06c-1.214,12.435-3.759,35.653-19.89,34.077C13.567,41.563,15.561,18.291,16.775,5.857
						c0,0,3.647,2.421,16.72,3.698C46.57,10.831,49.589,9.06,49.589,9.06z"/>
				
			
			
				
					<path fill="#B21F24" d="M45.62,27.957c-3.184,9.317-7.773,14.897-15.817,14.111c-8.006-0.782-11.637-7-12.77-16.759
						c0,0,7.582-1.52,14.89-0.585C39.231,25.662,45.62,27.957,45.62,27.957z"/>
				
			
			
				
					<path fill="#C42126" d="M45.279,28.932c-3.189,8.919-7.714,13.894-15.476,13.136c-7.733-0.755-11.406-6.398-12.648-15.773
						c-0.043-0.329,6.728,2.449,14.037,3.388C38.499,30.619,45.394,28.608,45.279,28.932z"/>
				
			
		
	
	
		
			
				
					<path fill="#E3E4E5" d="M161.585,151.053c-0.148-0.141-0.305-0.273-0.478-0.392l-5.092-1.615l-50.707-29.867
						c-1.785-1.223-4.08-0.98-5.125,0.546l-24.574,35.879c-1.044,1.524-0.442,3.752,1.344,4.975l45.842,36.229l3.675,4.423
						c0.175,0.12,0.356,0.218,0.543,0.306c0.204,0.319,0.453,0.582,0.75,0.785c4.003,2.741,14.942-7.329,24.169-20.8
						c9.228-13.473,14.665-27.312,10.662-30.054C162.297,151.265,161.958,151.128,161.585,151.053z"/>
				
			
			
				
					<path fill="#F2CF3B" d="M153.675,151.564c-0.129-0.122-0.266-0.237-0.417-0.34l-51.186-31.325
						c-1.579-1.081-27.443,36.681-25.864,37.762l47.704,36.408c0.152,0.104,0.312,0.189,0.473,0.267
						c0.178,0.273,0.396,0.502,0.654,0.679c3.484,2.386,12.914-5.323,21.063-17.222c8.149-11.898,11.931-23.478,8.447-25.864
						C154.293,151.752,153.998,151.632,153.675,151.564z"/>
				
			
			
				
					<path fill="#FFDD4D" d="M102.142,119.798c-1.579-1.081-27.606,36.919-26.027,38l47.798,36.272
						c0.152,0.104,0.312,0.189,0.473,0.267c0.178,0.273,0.396,0.502,0.654,0.679C128.524,197.401,102.142,119.798,102.142,119.798z"
						/>
				
			
			
				
					
						<path fill="#E3E4E5" d="M145.323,124.78c-10.933-7.488-23.892-7.384-32.654,0.264l4.022,2.399
							c7.574-4.677,17.105-3.931,25.543,1.848c3.378,2.314,7.504,10.693,8.876,18.674l4.898,2.921
							C155.06,140.865,149.871,127.895,145.323,124.78z"/>
					
				
			
			
				
					<path fill="#DBDDDC" d="M109.159,124.109l-6.565-3.928c-1.757-1.203-27.749,36.745-25.992,37.949l6.103,4.624
						c0,0,5.227-11.51,11.555-20.748C100.589,132.765,109.159,124.109,109.159,124.109z"/>
				
			
			
				
					<path fill="#EFF2F1" d="M108.125,123.597l-6.127-3.854c-3.921-2.685-29.88,35.216-25.96,37.901l5.769,4.395
						c0,0,5.278-11.376,11.606-20.615C99.742,132.185,108.125,123.597,108.125,123.597z"/>
				
			
			
				
					<path fill="#DBDDDC" d="M68.556,163.706c0,0,3.961,6.278,10.622,5.305c6.66-0.973,4.066-8.28,3.444-12.033
						c-2.828-17.079,19.401-37.756,19.401-37.756c-4.416-3.735-10.607-6.409-17.762,0.684c-6.11,6.054-6.578,12.295-8.551,14.504
						c-1.973,2.206-8.601,7.171-10.011,11.921C63.408,154.052,66.782,160.912,68.556,163.706z"/>
				
			
			
				
					<path fill="#E9EEEE" d="M68.017,163.337c0,0,3.959,6.276,10.621,5.304c6.662-0.971,4.218-8.308,3.444-12.033
						c-3.437-16.572,19.402-37.754,19.402-37.754c-4.418-3.736-10.607-6.409-17.764,0.683c-6.108,6.055-6.576,12.296-8.55,14.504
						c-1.974,2.205-8.601,7.171-10.01,11.922C62.868,153.683,66.242,160.542,68.017,163.337z"/>
				
			
			
				<path fill="#FFEFAE" d="M116.944,164.626c-0.864,1.261-2.594,1.584-3.855,0.721c-1.261-0.864-1.584-2.593-0.72-3.854
					c0.864-1.261,2.593-1.585,3.854-0.721C117.484,161.635,117.808,163.364,116.944,164.626z M113.016,161.936
					c-0.619,0.904-0.387,2.144,0.516,2.763c0.904,0.619,2.144,0.388,2.763-0.516c0.619-0.904,0.387-2.144-0.517-2.763
					C114.875,160.8,113.635,161.032,113.016,161.936z"/>
			
			
				<path fill="#FFEFAE" d="M125.468,164.29c-0.444,0.648-1.332,0.814-1.98,0.37s-0.814-1.332-0.37-1.98
					c0.444-0.648,1.332-0.814,1.98-0.37C125.745,162.753,125.911,163.642,125.468,164.29z M123.765,163.124
					c-0.199,0.291-0.125,0.689,0.166,0.888c0.291,0.199,0.689,0.125,0.889-0.166c0.199-0.291,0.125-0.689-0.166-0.889
					C124.362,162.758,123.964,162.833,123.765,163.124z"/>
			
			
				<path fill="#FFEFAE" d="M120.149,156.98c-0.733,1.07-2.2,1.344-3.27,0.611c-1.07-0.733-1.344-2.2-0.611-3.27
					c0.733-1.07,2.2-1.344,3.27-0.611C120.607,154.443,120.882,155.91,120.149,156.98z M116.915,154.765
					c-0.488,0.713-0.306,1.69,0.407,2.178c0.713,0.488,1.691,0.306,2.179-0.407c0.488-0.713,0.305-1.69-0.408-2.178
					C118.38,153.869,117.403,154.052,116.915,154.765z"/>
			
			
				<path fill="#FFEFAE" d="M112.65,150.331c-1.122,1.638-3.367,2.057-5.007,0.934c-1.638-1.122-2.057-3.367-0.935-5.004
					c1.122-1.638,3.367-2.058,5.004-0.936C113.351,146.448,113.772,148.693,112.65,150.331z M107.356,146.705
					c-0.877,1.28-0.549,3.036,0.731,3.913c1.282,0.878,3.038,0.55,3.915-0.73c0.877-1.28,0.548-3.036-0.734-3.914
					C109.988,145.096,108.233,145.424,107.356,146.705z"/>
			
			
				<path fill="#FFEFAE" d="M136.867,168.13c-0.589,0.859-1.767,1.079-2.627,0.49c-0.859-0.588-1.079-1.766-0.49-2.625
					c0.588-0.859,1.766-1.079,2.625-0.491C137.235,166.093,137.456,167.271,136.867,168.13z M134.399,166.439
					c-0.344,0.502-0.215,1.19,0.286,1.533c0.503,0.344,1.191,0.216,1.535-0.286c0.344-0.502,0.215-1.19-0.288-1.534
					C135.43,165.809,134.742,165.938,134.399,166.439z"/>
			
			
				<path fill="#FFEFAE" d="M140.967,175.449c-0.449,0.656-1.348,0.823-2.004,0.374c-0.655-0.448-0.823-1.347-0.374-2.002
					s1.347-0.824,2.002-0.375C141.248,173.895,141.416,174.793,140.967,175.449z M139.238,174.264
					c-0.204,0.298-0.128,0.707,0.17,0.911c0.299,0.205,0.708,0.128,0.912-0.17c0.204-0.298,0.127-0.707-0.171-0.912
					C139.85,173.889,139.442,173.966,139.238,174.264z"/>
			
			
				<path fill="#FFEFAE" d="M132.216,163.732c-0.589,0.859-1.767,1.079-2.627,0.49c-0.859-0.588-1.079-1.766-0.49-2.625
					c0.588-0.859,1.766-1.079,2.625-0.491C132.583,161.695,132.804,162.873,132.216,163.732z M129.747,162.041
					c-0.344,0.502-0.215,1.19,0.286,1.533c0.503,0.344,1.191,0.216,1.535-0.286c0.344-0.502,0.215-1.19-0.288-1.534
					C130.779,161.411,130.091,161.54,129.747,162.041z"/>
			
		
	
	
		
			
				
					<path fill="#DDDFE0" d="M164.338,145.109c2.961,12.524,8.775,35.869,25.023,32.027c16.247-3.842,10.991-27.319,8.029-39.842
						C196.196,132.241,162.977,139.353,164.338,145.109z"/>
				
			
			
				
					
						<ellipse transform="matrix(0.9732 -0.2301 0.2301 0.9732 -45.3728 51.7897)" fill="#CECFD0" cx="199.368" cy="220.436" rx="14.021" ry="5.85"/>
				
			
			
				
					
						<ellipse transform="matrix(0.9732 -0.2301 0.2301 0.9732 -45.2585 51.7482)" fill="#D7D7D7" cx="199.247" cy="219.925" rx="14.021" ry="5.323"/>
				
			
			
				
					<path fill="#E3E4E5" d="M203.029,218.647c0,0-7.312-19.216-8.849-25.715c-1.537-6.502-2.517-14.746-2.517-14.746l-4.278,1.012
						c0,0,2.992,8.555,4.353,14.312s3.604,26.956,3.604,26.956s1.609,1.158,4.237,0.537
						C202.206,220.381,203.029,218.647,203.029,218.647z"/>
				
			
			
				
					<polygon fill="#E3E4E5" points="193.363,175.009 184.461,177.114 187.539,179.366 191.62,178.401 					"/>
				
			
			
				
					<path fill="#DFE0E1" d="M197.017,137.874c2.875,12.159-29.211,19.745-32.086,7.587
						C163.61,139.872,195.857,132.967,197.017,137.874z"/>
				
			
			
				
					<path fill="#E8EAEB" d="M197.017,137.874c2.875,12.159,7.98,34.951-7.793,38.68s-21.417-18.935-24.292-31.094
						c0,0,4.234,1.111,17.017-1.911C194.734,140.526,197.017,137.874,197.017,137.874z"/>
				
			
			
				
					<path fill="#E8EAEB" d="M197.017,137.874c2.875,12.159,7.98,34.951-7.793,38.68s-21.417-18.935-24.292-31.094
						c0,0,4.234,1.111,17.017-1.911C194.734,140.526,197.017,137.874,197.017,137.874z"/>
				
			
			
				
					<path fill="#B21F24" d="M199.377,157.038c0.002,9.846-2.534,16.61-10.4,18.47c-7.829,1.851-13.276-2.858-17.506-11.725
						c0,0,6.682-3.892,13.899-5.372C192.588,156.935,199.377,157.038,199.377,157.038z"/>
				
			
			
				
					<path fill="#C42126" d="M199.37,158.071c-0.131,9.471-2.803,15.643-10.393,17.437c-7.562,1.788-12.862-2.363-17.072-10.832
						c-0.147-0.297,7.158,0.14,14.378-1.337C193.5,161.861,199.373,157.728,199.37,158.071z"/>
				
			
		
	
	
		
			
				
					<path fill="#DDDFE0" d="M130.843,51.857c5.168,11.786,15.091,33.702,30.381,26.998c15.29-6.704,5.892-28.851,0.724-40.637
						C159.863,33.462,128.467,46.44,130.843,51.857z"/>
				
			
			
				
					
						<ellipse transform="matrix(0.9158 -0.4016 0.4016 0.9158 -32.9906 81.8982)" fill="#CECFD0" cx="178.864" cy="119.644" rx="14.021" ry="5.85"/>
				
			
			
				
					
						<ellipse transform="matrix(0.9158 -0.4016 0.4016 0.9158 -32.8153 81.7731)" fill="#D7D7D7" cx="178.653" cy="119.164" rx="14.021" ry="5.323"/>
				
			
			
				
					<path fill="#E3E4E5" d="M182.143,117.226c0,0-10.653-17.586-13.335-23.702c-2.683-6.118-5.131-14.052-5.131-14.052
						l-4.026,1.765c0,0,4.484,7.876,6.859,13.294s8.399,25.866,8.399,25.866s1.791,0.85,4.264-0.235
						C181.646,119.079,182.143,117.226,182.143,117.226z"/>
				
			
			
				
					<polygon fill="#E3E4E5" points="164.777,76.041 156.4,79.715 159.832,81.376 163.673,79.692 					"/>
				
			
			
				
					<path fill="#DFE0E1" d="M161.685,38.856c5.017,11.442-25.178,24.682-30.195,13.24C129.184,46.836,159.66,34.238,161.685,38.856
						z"/>
				
			
			
				
					<path fill="#E8EAEB" d="M161.685,38.856c5.017,11.442,14.143,32.943-0.701,39.451c-14.844,6.509-24.477-14.769-29.494-26.211
						c0,0,4.365,0.33,16.394-4.944C159.916,41.876,161.685,38.856,161.685,38.856z"/>
				
			
			
				
					<path fill="#E8EAEB" d="M161.685,38.856c5.017,11.442,14.143,32.943-0.701,39.451c-14.844,6.509-24.477-14.769-29.494-26.211
						c0,0,4.365,0.33,16.394-4.944C159.916,41.876,161.685,38.856,161.685,38.856z"/>
				
			
			
				
					<path fill="#B21F24" d="M167.456,57.282c1.775,9.684,0.498,16.795-6.904,20.041c-7.367,3.23-13.574-0.42-19.331-8.381
						c0,0,5.873-5.031,12.705-7.787C160.76,58.402,167.456,57.282,167.456,57.282z"/>
				
			
			
				
					<path fill="#C42126" d="M167.635,58.299c1.576,9.34,0.059,15.892-7.083,19.024c-7.116,3.12-13.078-0.009-18.743-7.581
						c-0.198-0.266,7.066-1.152,13.902-3.904C162.544,63.084,167.577,57.961,167.635,58.299z"/>
				
			
		
	
	
		
			
				
					<path fill="#E3E4E5" d="M53.446,283.228c0.132-0.155,0.256-0.32,0.365-0.499l1.328-5.174l26.991-52.294
						c1.121-1.851,0.751-4.128-0.831-5.086L44.105,197.64c-1.58-0.957-3.771-0.232-4.892,1.619L5.598,247.051l-4.212,3.916
						c-0.11,0.181-0.198,0.368-0.275,0.559c-0.307,0.222-0.556,0.485-0.742,0.793c-2.514,4.149,8.151,14.51,22.116,22.971
						c13.966,8.462,28.088,13.118,30.602,8.969C53.274,283.95,53.391,283.604,53.446,283.228z"/>
				
			
			
				
					<path fill="#F2CF3B" d="M52.494,275.359c0.115-0.136,0.222-0.279,0.316-0.435l28.421-52.854
						c0.991-1.636-38.155-25.354-39.146-23.717l-33.69,49.661c-0.095,0.157-0.171,0.322-0.24,0.487
						c-0.263,0.193-0.479,0.424-0.641,0.691c-2.188,3.611,6.035,12.597,18.37,20.07c12.334,7.473,24.107,10.603,26.295,6.991
						C52.341,275.985,52.444,275.684,52.494,275.359z"/>
				
			
			
				
					<path fill="#FFDD4D" d="M81.336,222.134c0.991-1.636-38.401-25.503-39.393-23.867L8.395,248.014
						c-0.095,0.157-0.171,0.322-0.24,0.487c-0.263,0.193-0.479,0.424-0.641,0.691C5.325,252.803,81.336,222.134,81.336,222.134z"/>
				
			
			
				
					
						<path fill="#E3E4E5" d="M78.77,265.525c6.867-11.334,6.039-24.266-2.086-32.588l-2.171,4.149
							c5.092,7.301,4.879,16.859-0.42,25.606c-2.122,3.502-10.258,8.089-18.15,9.904l-2.643,5.053
							C63.253,276.144,75.914,270.24,78.77,265.525z"/>
					
				
			
			
				
					<path fill="#DBDDDC" d="M77.423,229.38l3.555-6.774c1.103-1.821-38.236-25.655-39.34-23.834l-4.276,6.352
						c0,0,11.783,4.577,21.361,10.379C68.302,221.306,77.423,229.38,77.423,229.38z"/>
				
			
			
				
					<path fill="#EFF2F1" d="M77.876,228.319l3.507-6.333c2.463-4.064-36.828-27.869-39.291-23.805l-4.066,6.005
						c0,0,11.653,4.635,21.23,10.438C68.834,220.428,77.876,228.319,77.876,228.319z"/>
				
			
			
				
					<path fill="#DBDDDC" d="M35.622,191.049c0,0-6.047,4.305-4.704,10.902c1.343,6.595,8.494,3.598,12.207,2.767
						c16.895-3.776,38.779,17.264,38.779,17.264c3.482-4.617,5.807-10.949-1.674-17.697c-6.385-5.763-12.643-5.882-14.958-7.728
						c-2.313-1.847-7.639-8.188-12.461-9.33C44.974,185.371,38.313,189.122,35.622,191.049z"/>
				
			
			
				
					<path fill="#E9EEEE" d="M35.96,190.491c0,0-6.046,4.303-4.703,10.9c1.342,6.598,8.53,3.748,12.207,2.767
						c16.355-4.356,38.778,17.266,38.778,17.266c3.484-4.62,5.807-10.948-1.673-17.698c-6.386-5.761-12.644-5.88-14.959-7.727
						c-2.312-1.848-7.64-8.187-12.461-9.329C45.313,184.811,38.652,188.562,35.96,190.491z"/>
				
			
			
				<path fill="#FFEFAE" d="M37.403,239.413c-1.308-0.792-1.727-2.501-0.934-3.809c0.792-1.308,2.501-1.727,3.808-0.934
					c1.308,0.792,1.727,2.5,0.935,3.808C40.42,239.785,38.711,240.205,37.403,239.413z M39.87,235.341
					c-0.937-0.568-2.162-0.267-2.729,0.67c-0.568,0.938-0.267,2.162,0.67,2.73c0.937,0.568,2.162,0.267,2.73-0.67
					C41.108,237.134,40.807,235.909,39.87,235.341z"/>
			
			
				<path fill="#FFEFAE" d="M38.214,247.905c-0.672-0.407-0.887-1.285-0.48-1.957c0.407-0.672,1.285-0.887,1.956-0.48
					c0.672,0.407,0.887,1.285,0.48,1.957C39.764,248.096,38.886,248.312,38.214,247.905z M39.284,246.14
					c-0.301-0.183-0.695-0.086-0.878,0.215c-0.183,0.302-0.086,0.695,0.215,0.878c0.301,0.183,0.695,0.086,0.878-0.215
					C39.682,246.716,39.585,246.322,39.284,246.14z"/>
			
			
				<path fill="#FFEFAE" d="M45.216,242.187c-1.109-0.672-1.465-2.121-0.792-3.231c0.672-1.109,2.121-1.465,3.23-0.793
					c1.109,0.672,1.465,2.121,0.793,3.23C47.775,242.503,46.325,242.858,45.216,242.187z M47.247,238.834
					c-0.739-0.448-1.704-0.211-2.152,0.528c-0.448,0.739-0.211,1.705,0.528,2.153c0.739,0.448,1.705,0.21,2.152-0.529
					C48.223,240.247,47.986,239.282,47.247,238.834z"/>
			
			
				<path fill="#FFEFAE" d="M51.437,234.328c-1.698-1.029-2.242-3.247-1.212-4.947c1.029-1.698,3.247-2.242,4.944-1.213
					c1.698,1.029,2.242,3.247,1.214,4.944C55.353,234.812,53.134,235.357,51.437,234.328z M54.762,228.84
					c-1.327-0.804-3.062-0.378-3.866,0.948c-0.805,1.329-0.38,3.064,0.948,3.868c1.327,0.804,3.062,0.378,3.867-0.951
					C56.515,231.379,56.089,229.644,54.762,228.84z"/>
			
			
				<path fill="#FFEFAE" d="M35.016,259.501c-0.891-0.54-1.176-1.704-0.636-2.595c0.539-0.89,1.703-1.175,2.594-0.636
					c0.89,0.539,1.176,1.703,0.637,2.593C37.07,259.754,35.906,260.04,35.016,259.501z M36.566,256.942
					c-0.52-0.315-1.2-0.148-1.515,0.371c-0.316,0.521-0.149,1.201,0.371,1.516c0.52,0.315,1.2,0.148,1.516-0.373
					C37.253,257.936,37.086,257.257,36.566,256.942z"/>
			
			
				<path fill="#FFEFAE" d="M27.937,264.003c-0.68-0.412-0.897-1.3-0.485-1.98c0.411-0.679,1.299-0.897,1.979-0.485
					c0.68,0.412,0.897,1.299,0.486,1.978C29.505,264.196,28.617,264.415,27.937,264.003z M29.024,262.21
					c-0.309-0.187-0.713-0.089-0.9,0.22c-0.188,0.31-0.089,0.714,0.22,0.901s0.713,0.088,0.901-0.222
					C29.432,262.8,29.333,262.397,29.024,262.21z"/>
			
			
				<path fill="#FFEFAE" d="M39.148,254.611c-0.891-0.54-1.176-1.704-0.636-2.595c0.539-0.89,1.703-1.176,2.594-0.636
					c0.89,0.539,1.176,1.703,0.637,2.593C41.202,254.865,40.038,255.151,39.148,254.611z M40.698,252.052
					c-0.52-0.315-1.2-0.149-1.515,0.371c-0.316,0.521-0.149,1.201,0.372,1.516c0.52,0.315,1.2,0.148,1.516-0.373
					C41.385,253.047,41.218,252.367,40.698,252.052z"/>
			
		
	
	
		
			
				
					<path fill="#E3E4E5" d="M129.12,83.282c0.054-0.181,0.096-0.367,0.118-0.559l-0.995-4.87l2.218-54.353
						c0.229-1.986-1.073-3.769-2.91-3.981l-43.203-4.974c-1.835-0.211-3.509,1.229-3.737,3.216L70.492,70.815l-2.147,4.898
						c-0.022,0.194-0.023,0.385-0.012,0.576c-0.183,0.303-0.297,0.619-0.335,0.95c-0.513,4.453,13.53,9.172,29.751,11.039
						c16.223,1.868,30.971,0.464,31.483-3.99C129.271,83.956,129.23,83.62,129.12,83.282z"/>
				
			
			
				
					<path fill="#F2CF3B" d="M124.92,76.997c0.046-0.158,0.082-0.32,0.101-0.487l3.273-55.365c0.202-1.756-45.268-6.991-45.47-5.235
						l-9.394,54.66c-0.019,0.169-0.018,0.337-0.01,0.502c-0.156,0.263-0.253,0.539-0.287,0.826
						c-0.446,3.876,10.804,8.356,25.132,10.005c14.327,1.649,26.303-0.156,26.749-4.032
						C125.047,77.584,125.013,77.291,124.92,76.997z"/>
				
			
			
				
					<path fill="#FFDD4D" d="M128.417,21.16c0.202-1.756-45.555-7.024-45.757-5.268l-9.23,54.679
						c-0.019,0.169-0.018,0.337-0.01,0.502c-0.156,0.263-0.253,0.539-0.287,0.826C72.687,75.775,128.417,21.16,128.417,21.16z"/>
				
			
			
				
					
						<path fill="#E3E4E5" d="M144.512,58.767c1.4-12.164-4.836-22.771-15.717-26.728l-0.202,4.323
							c7.704,4.241,11.568,12.392,10.487,21.779c-0.433,3.759-5.844,10.706-12.212,15.22l-0.246,5.265
							C134.984,73.595,143.929,63.826,144.512,58.767z"/>
					
				
			
			
				
					<path fill="#DBDDDC" d="M127.953,28.756l0.341-7.063c0.225-1.954-45.47-7.215-45.695-5.261l-1.172,6.979
						c0,0,12.6-0.588,23.724,0.693C116.277,25.385,127.953,28.756,127.953,28.756z"/>
				
			
			
				
					<path fill="#EFF2F1" d="M127.912,27.689l0.484-6.672c0.502-4.362-45.136-9.616-45.638-5.254l-1.129,6.607
						c0,0,12.506-0.489,23.63,0.791C116.386,24.443,127.912,27.689,127.912,27.689z"/>
				
			
			
				
					<path fill="#DBDDDC" d="M73.88,12.186c0,0-3.642,5.919,0.373,10.982c4.014,5.061,9.209-0.172,12.214-2.276
						c13.677-9.572,42.399-0.075,42.399-0.075c1.19-5.214,0.606-11.438-9.024-14.309c-8.22-2.453-13.931-0.189-16.808-0.874
						c-2.875-0.686-10.384-4.027-15.229-3.17C79.928,3.858,75.496,9.542,73.88,12.186z"/>
				
			
			
				
					<path fill="#E9EEEE" d="M73.949,11.587c0,0-3.642,5.917,0.373,10.98c4.013,5.064,9.305-0.059,12.214-2.276
						c12.943-9.857,42.399-0.073,42.399-0.073c1.19-5.217,0.606-11.438-9.024-14.311c-8.221-2.451-13.931-0.188-16.808-0.873
						c-2.875-0.687-10.384-4.026-15.23-3.169C79.997,3.257,75.565,8.941,73.949,11.587z"/>
				
			
			
				<path fill="#FFEFAE" d="M96.016,52.348c-1.519-0.175-2.623-1.46-2.462-2.863c0.162-1.403,1.529-2.403,3.048-2.228
					c1.519,0.175,2.623,1.459,2.462,2.862C98.902,51.523,97.535,52.523,96.016,52.348z M96.519,47.979
					c-1.088-0.125-2.069,0.591-2.184,1.597c-0.116,1.006,0.676,1.927,1.764,2.052c1.089,0.125,2.069-0.591,2.185-1.598
					C98.4,49.025,97.608,48.104,96.519,47.979z"/>
			
			
				<path fill="#FFEFAE" d="M100.354,59.212c-0.78-0.09-1.348-0.75-1.265-1.471c0.083-0.721,0.785-1.234,1.566-1.145
					s1.348,0.75,1.265,1.471C101.836,58.788,101.134,59.302,100.354,59.212z M100.572,57.318c-0.35-0.04-0.665,0.19-0.702,0.514
					c-0.037,0.324,0.217,0.62,0.567,0.66c0.35,0.04,0.665-0.19,0.703-0.514C101.176,57.654,100.922,57.358,100.572,57.318z"/>
			
			
				<path fill="#FFEFAE" d="M104.259,51.738c-1.288-0.148-2.225-1.238-2.088-2.429c0.137-1.19,1.297-2.038,2.585-1.89
					c1.288,0.148,2.225,1.238,2.088,2.428C106.708,51.039,105.548,51.887,104.259,51.738z M104.674,48.14
					c-0.858-0.099-1.631,0.466-1.722,1.259c-0.091,0.793,0.533,1.519,1.391,1.618c0.858,0.099,1.631-0.467,1.722-1.26
					C106.156,48.965,105.532,48.239,104.674,48.14z"/>
			
			
				<path fill="#FFEFAE" d="M106.55,42.753c-1.972-0.227-3.406-1.895-3.196-3.719c0.21-1.822,1.985-3.12,3.957-2.893
					c1.972,0.227,3.406,1.894,3.196,3.716C110.297,41.682,108.522,42.98,106.55,42.753z M107.228,36.863
					c-1.542-0.177-2.93,0.837-3.094,2.261c-0.164,1.426,0.957,2.731,2.499,2.908c1.542,0.177,2.93-0.838,3.094-2.264
					C109.891,38.344,108.77,37.04,107.228,36.863z"/>
			
			
				<path fill="#FFEFAE" d="M102.382,70.212c-1.035-0.119-1.787-0.994-1.677-1.951c0.11-0.956,1.041-1.636,2.076-1.517
					c1.034,0.119,1.786,0.993,1.676,1.949C104.348,69.649,103.416,70.331,102.382,70.212z M102.699,67.465
					c-0.605-0.07-1.148,0.328-1.213,0.886c-0.064,0.559,0.375,1.07,0.979,1.14c0.604,0.07,1.148-0.328,1.212-0.888
					C103.742,68.045,103.302,67.535,102.699,67.465z"/>
			
			
				<path fill="#FFEFAE" d="M97.891,76.688c-0.789-0.091-1.363-0.759-1.279-1.488c0.084-0.728,0.794-1.248,1.584-1.157
					c0.789,0.091,1.363,0.758,1.279,1.486C99.391,76.258,98.68,76.778,97.891,76.688z M98.112,74.763
					c-0.359-0.041-0.682,0.194-0.72,0.526c-0.038,0.332,0.223,0.636,0.582,0.678s0.682-0.195,0.721-0.528
					C98.732,75.108,98.471,74.804,98.112,74.763z"/>
			
			
				<path fill="#FFEFAE" d="M104.044,64.522c-1.035-0.119-1.787-0.994-1.677-1.951c0.11-0.956,1.041-1.636,2.076-1.517
					c1.034,0.119,1.786,0.993,1.676,1.949C106.01,63.96,105.078,64.641,104.044,64.522z M104.36,61.775
					c-0.605-0.07-1.149,0.328-1.213,0.886c-0.064,0.56,0.375,1.07,0.98,1.14c0.604,0.07,1.148-0.328,1.212-0.888
					C105.404,62.356,104.964,61.845,104.36,61.775z"/>
			
		
	
	
		
			
				
					<path fill="#DDDFE0" d="M259.248,13.376c-2.265,12.668-6.216,36.4,10.22,39.338c16.435,2.938,20.95-20.693,23.215-33.361
						C293.596,14.241,260.289,7.553,259.248,13.376z"/>
				
			
			
				
					
						<ellipse transform="matrix(0.9844 0.176 -0.176 0.9844 21.0469 -44.4991)" fill="#CECFD0" cx="261.426" cy="96.42" rx="14.021" ry="5.85"/>
				
			
			
				
					
						<ellipse transform="matrix(0.9844 0.176 -0.176 0.9844 20.9574 -44.5234)" fill="#D7D7D7" cx="261.518" cy="95.904" rx="14.021" ry="5.323"/>
				
			
			
				
					<path fill="#E3E4E5" d="M265.496,96.236c0,0,0.935-20.539,2.11-27.113c1.176-6.577,3.556-14.531,3.556-14.531l-4.328-0.774
						c0,0-0.658,9.039-1.699,14.863c-1.041,5.824-7.415,26.165-7.415,26.165s1.015,1.703,3.674,2.178
						C264.052,97.499,265.496,96.236,265.496,96.236z"/>
				
			
			
				
					<polygon fill="#E3E4E5" points="273.985,52.353 264.981,50.744 266.909,54.034 271.037,54.772 					"/>
				
			
			
				
					<path fill="#DFE0E1" d="M292.109,19.736c-2.199,12.299-34.654,6.497-32.456-5.802C260.664,8.281,292.996,14.773,292.109,19.736
						z"/>
				
			
			
				
					<path fill="#E8EAEB" d="M292.109,19.736c-2.199,12.299-6.581,35.241-22.536,32.389c-15.955-2.852-12.118-25.892-9.92-38.191
						c0,0,3.443,2.703,16.373,5.015C288.959,21.261,292.109,19.736,292.109,19.736z"/>
				
			
			
				
					<path fill="#E8EAEB" d="M292.109,19.736c-2.199,12.299-6.581,35.241-22.536,32.389c-15.955-2.852-12.118-25.892-9.92-38.191
						c0,0,3.443,2.703,16.373,5.015C288.959,21.261,292.109,19.736,292.109,19.736z"/>
				
			
			
				
					<path fill="#B21F24" d="M286.651,38.258c-3.914,9.034-8.932,14.232-16.889,12.809c-7.919-1.416-11.044-7.902-11.397-17.721
						c0,0,7.679-0.912,14.889,0.6C280.464,35.462,286.651,38.258,286.651,38.258z"/>
				
			
			
				
					<path fill="#C42126" d="M286.234,39.202c-3.888,8.638-8.794,13.237-16.471,11.865c-7.649-1.367-10.861-7.285-11.355-16.728
						c-0.017-0.331,6.512,2.975,13.723,4.493C279.341,40.345,286.374,38.889,286.234,39.202z"/>
				
			
		
	
	
		
			
				
					<path fill="#E3E4E5" d="M252.926,87.222c-0.038-0.201-0.088-0.4-0.16-0.597l-3.193-4.282l-23.758-53.84
						c-0.737-2.035-2.742-3.176-4.481-2.547l-40.891,14.803c-1.737,0.629-2.548,2.79-1.811,4.824l16.095,56.169l0.404,5.737
						c0.072,0.199,0.162,0.385,0.262,0.565c-0.02,0.378,0.029,0.737,0.151,1.075c1.651,4.562,16.411,2.765,31.765-2.793
						c15.355-5.558,27.845-13.627,26.193-18.188C253.38,87.809,253.184,87.5,252.926,87.222z"/>
				
			
			
				
					<path fill="#F2CF3B" d="M246.204,83.022c-0.034-0.175-0.078-0.348-0.14-0.519l-23.296-55.304
						c-0.651-1.799-43.689,13.781-43.037,15.58l17.503,57.401c0.063,0.173,0.143,0.335,0.228,0.493
						c-0.015,0.326,0.029,0.639,0.136,0.933c1.437,3.97,13.594,3.211,27.155-1.698c13.56-4.909,23.387-12.108,21.95-16.078
						C246.595,83.535,246.426,83.266,246.204,83.022z"/>
				
			
			
				
					<path fill="#FFDD4D" d="M222.883,27.157c-0.651-1.799-43.96,13.879-43.309,15.678l17.658,57.345
						c0.063,0.173,0.143,0.335,0.228,0.493c-0.015,0.326,0.029,0.639,0.136,0.933C199.034,105.576,222.883,27.157,222.883,27.157z"
						/>
				
			
			
				
					
						<path fill="#E3E4E5" d="M255.046,56.396c-4.511-12.46-15.096-19.936-26.675-18.836l1.867,4.295
							c8.88,0.62,16.186,6.787,19.667,16.403c1.394,3.85-0.144,13.063-3.686,20.345l2.274,5.229
							C253.57,75.141,256.923,61.579,255.046,56.396z"/>
					
				
			
			
				
					<path fill="#DBDDDC" d="M226.066,34.752l-3.041-7.02c-0.725-2.002-43.975,13.655-43.25,15.657l2.259,7.316
						c0,0,10.96-6.298,21.49-10.11C214.056,36.783,226.066,34.752,226.066,34.752z"/>
				
			
			
				
					<path fill="#EFF2F1" d="M225.525,33.734l-2.728-6.705c-1.618-4.468-44.814,11.169-43.196,15.637l2.121,6.935
						c0,0,10.923-6.16,21.453-9.972C213.706,35.817,225.525,33.734,225.525,33.734z"/>
				
			
			
				
					<path fill="#DBDDDC" d="M169.987,43.224c0,0-0.446,7.409,5.532,10.506c5.976,3.095,8.133-4.353,9.817-7.764
						c7.667-15.521,37.784-19.345,37.784-19.345c-1.408-5.609-4.876-11.394-14.825-9.807c-8.494,1.352-12.516,6.148-15.406,6.791
						c-2.89,0.64-11.169,0.806-15.085,3.842C171.439,32.38,170.177,39.919,169.987,43.224z"/>
				
			
			
				
					<path fill="#E9EEEE" d="M169.765,42.61c0,0-0.446,7.407,5.532,10.504c5.977,3.098,8.272-4.287,9.817-7.764
						c6.878-15.465,37.785-19.343,37.785-19.343c-1.408-5.612-4.876-11.394-14.826-9.809c-8.493,1.354-12.515,6.15-15.406,6.792
						c-2.89,0.639-11.169,0.807-15.085,3.842C171.216,31.765,169.954,39.304,169.765,42.61z"/>
				
			
			
				<path fill="#FFEFAE" d="M208.75,72.201c-1.438,0.52-3.031-0.226-3.551-1.664c-0.52-1.438,0.226-3.03,1.664-3.551
					c1.438-0.52,3.031,0.225,3.551,1.663C210.934,70.087,210.188,71.681,208.75,72.201z M207.13,67.725
					c-1.03,0.373-1.565,1.515-1.192,2.545c0.373,1.031,1.515,1.566,2.545,1.193c1.03-0.373,1.565-1.515,1.192-2.546
					C209.302,67.887,208.16,67.352,207.13,67.725z"/>
			
			
				<path fill="#FFEFAE" d="M215.869,76.901c-0.738,0.267-1.557-0.116-1.824-0.855c-0.267-0.738,0.116-1.557,0.855-1.824
					c0.738-0.267,1.557,0.116,1.824,0.855C216.991,75.815,216.608,76.634,215.869,76.901z M215.167,74.961
					c-0.331,0.12-0.503,0.487-0.383,0.818c0.12,0.332,0.487,0.503,0.819,0.383s0.504-0.487,0.383-0.819
					C215.865,75.012,215.498,74.841,215.167,74.961z"/>
			
			
				<path fill="#FFEFAE" d="M215.814,67.861c-1.219,0.441-2.571-0.192-3.013-1.412c-0.441-1.219,0.192-2.571,1.411-3.012
					c1.219-0.441,2.571,0.192,3.012,1.411C217.667,66.068,217.034,67.42,215.814,67.861z M214.48,64.175
					c-0.812,0.294-1.234,1.194-0.94,2.006c0.294,0.812,1.195,1.235,2.007,0.941c0.812-0.294,1.234-1.195,0.94-2.007
					C216.193,64.303,215.292,63.882,214.48,64.175z"/>
			
			
				<path fill="#FFEFAE" d="M213.603,58.086c-1.867,0.676-3.935-0.294-4.612-2.162c-0.676-1.866,0.293-3.935,2.16-4.61
					c1.866-0.676,3.935,0.293,4.61,2.159C216.438,55.341,215.47,57.41,213.603,58.086z M211.419,52.052
					c-1.459,0.528-2.217,2.146-1.689,3.604c0.529,1.461,2.146,2.219,3.606,1.691c1.459-0.528,2.216-2.147,1.688-3.607
					C214.495,52.282,212.878,51.524,211.419,52.052z"/>
			
			
				<path fill="#FFEFAE" d="M222.887,86.671c-0.979,0.355-2.065-0.154-2.419-1.134c-0.354-0.979,0.154-2.063,1.133-2.418
					c0.979-0.354,2.064,0.153,2.418,1.132C224.374,85.231,223.866,86.316,222.887,86.671z M221.869,83.857
					c-0.572,0.207-0.869,0.841-0.662,1.412c0.207,0.573,0.841,0.87,1.413,0.663c0.572-0.207,0.869-0.841,0.661-1.414
					C223.074,83.947,222.44,83.65,221.869,83.857z"/>
			
			
				<path fill="#FFEFAE" d="M221.947,95.007c-0.747,0.27-1.575-0.118-1.846-0.865c-0.27-0.746,0.118-1.574,0.865-1.844
					c0.747-0.27,1.575,0.117,1.845,0.863C223.082,93.908,222.695,94.737,221.947,95.007z M221.234,93.036
					c-0.34,0.123-0.516,0.499-0.394,0.839c0.123,0.34,0.5,0.517,0.84,0.394s0.516-0.5,0.393-0.84
					C221.95,93.089,221.574,92.913,221.234,93.036z"/>
			
			
				<path fill="#FFEFAE" d="M221.676,80.385c-0.979,0.355-2.065-0.154-2.419-1.134c-0.354-0.979,0.154-2.063,1.134-2.418
					c0.979-0.354,2.064,0.153,2.418,1.132C223.162,78.945,222.654,80.031,221.676,80.385z M220.657,77.571
					c-0.572,0.207-0.869,0.841-0.662,1.412c0.207,0.573,0.841,0.87,1.414,0.663c0.572-0.207,0.869-0.841,0.661-1.414
					C221.863,77.661,221.229,77.364,220.657,77.571z"/>
			
		
	
	
		
			
				
					<path fill="#DDDFE0" d="M50.838,105.688C42.668,115.631,27.617,134.4,40.517,145c12.899,10.599,28.393-7.806,36.563-17.749
						C80.377,123.239,54.593,101.118,50.838,105.688z"/>
				
			
			
				
					
						<ellipse transform="matrix(0.7726 0.6349 -0.6349 0.7726 116.5185 33.0412)" fill="#CECFD0" cx="12.13" cy="179.192" rx="14.021" ry="5.85"/>
				
			
			
				
					
						<ellipse transform="matrix(0.7726 0.6349 -0.6349 0.7726 116.3368 32.7375)" fill="#D7D7D7" cx="12.463" cy="178.787" rx="14.021" ry="5.323"/>
				
			
			
				
					<path fill="#E3E4E5" d="M15.771,181.022c0,0,10.859-17.459,15.098-22.619c4.241-5.162,10.207-10.936,10.207-10.936
						l-3.397-2.791c0,0-4.994,7.563-8.749,12.134c-3.756,4.571-19.262,19.198-19.262,19.198s0.053,1.982,2.139,3.696
						C13.894,181.417,15.771,181.022,15.771,181.022z"/>
				
			
			
				
					<polygon fill="#E3E4E5" points="44.634,146.894 37.566,141.087 37.639,144.9 40.879,147.562 					"/>
				
			
			
				
					<path fill="#DFE0E1" d="M76.392,127.305c-7.932,9.653-33.406-11.278-25.474-20.931
						C54.564,101.937,79.593,123.409,76.392,127.305z"/>
				
			
			
				
					<path fill="#E8EAEB" d="M76.392,127.305c-7.932,9.653-22.973,27.523-35.495,17.233c-12.523-10.29,2.09-28.511,10.021-38.164
						c0,0,1.681,4.042,11.83,12.381C72.899,127.095,76.392,127.305,76.392,127.305z"/>
				
			
			
				
					<path fill="#E8EAEB" d="M76.392,127.305c-7.932,9.653-22.973,27.523-35.495,17.233c-12.523-10.29,2.09-28.511,10.021-38.164
						c0,0,1.681,4.042,11.83,12.381C72.899,127.095,76.392,127.305,76.392,127.305z"/>
				
			
			
				
					<path fill="#B21F24" d="M62.574,140.792c-7.832,5.966-14.75,8.047-20.995,2.915c-6.215-5.107-5.77-12.294-1.277-21.031
						c0,0,7.145,2.959,12.694,7.804C58.544,135.328,62.574,140.792,62.574,140.792z"/>
				
			
			
				
					<path fill="#C42126" d="M61.749,141.412c-7.615,5.634-14.144,7.247-20.17,2.295c-6.004-4.933-5.912-11.665-1.725-20.144
						c0.147-0.297,4.225,5.78,9.774,10.629C55.177,139.038,62.024,141.207,61.749,141.412z"/>
				
			
		
	
	
		
			
				
					<path fill="#DDDFE0" d="M136.014,206.179c-9.641,8.524-27.474,24.673-16.414,37.182c11.059,12.508,29.271-3.213,38.912-11.737
						C162.401,228.185,140.445,202.261,136.014,206.179z"/>
				
			
			
				
					
						<ellipse transform="matrix(0.6624 0.7492 -0.7492 0.6624 233.332 27.498)" fill="#CECFD0" cx="86.157" cy="272.628" rx="14.021" ry="5.85"/>
				
			
			
				
					
						<ellipse transform="matrix(0.6624 0.7492 -0.7492 0.6624 233.2044 27.0861)" fill="#D7D7D7" cx="86.55" cy="272.281" rx="14.021" ry="5.323"/>
				
			
			
				
					<path fill="#E3E4E5" d="M89.463,275.011c0,0,13.486-15.52,18.489-19.944c5.005-4.425,11.81-9.182,11.81-9.182l-2.912-3.294
						c0,0-6.128,6.677-10.56,10.596c-4.432,3.919-22.059,15.906-22.059,15.906s-0.261,1.965,1.527,3.988
						C87.546,275.104,89.463,275.011,89.463,275.011z"/>
				
			
			
				
					<polygon fill="#E3E4E5" points="123.364,245.883 117.305,239.031 116.774,242.807 119.551,245.948 					"/>
				
			
			
				
					<path fill="#DFE0E1" d="M157.823,231.569c-9.36,8.276-31.199-16.425-21.839-24.7
						C140.287,203.065,161.601,228.229,157.823,231.569z"/>
				
			
			
				
					<path fill="#E8EAEB" d="M157.823,231.569c-9.36,8.276-27.04,23.538-37.776,11.396s6.577-27.821,15.937-36.096
						c0,0,1.02,4.257,9.721,14.097C154.407,230.808,157.823,231.569,157.823,231.569z"/>
				
			
			
				
					<path fill="#E8EAEB" d="M157.823,231.569c-9.36,8.276-27.04,23.538-37.776,11.396s6.577-27.821,15.937-36.096
						c0,0,1.02,4.257,9.721,14.097C154.407,230.808,157.823,231.569,157.823,231.569z"/>
				
			
			
				
					<path fill="#B21F24" d="M142.045,242.698c-8.678,4.651-15.838,5.61-21.192-0.445c-5.328-6.027-3.75-13.052,2.069-20.968
						c0,0,6.586,4.053,11.299,9.715C138.93,236.665,142.045,242.698,142.045,242.698z"/>
				
			
			
				
					<path fill="#C42126" d="M141.131,243.18c-8.411,4.357-15.113,4.916-20.279-0.927c-5.147-5.821-3.991-12.454,1.486-20.163
						c0.192-0.27,3.257,6.376,7.968,12.043C135.019,239.795,141.435,243.021,141.131,243.18z"/>
				
			
		
	
	
		
			
				
					<path fill="#E3E4E5" d="M276.542,267.902c-0.061-0.195-0.134-0.387-0.228-0.574l-3.673-3.878l-29.902-50.686
						c-0.97-1.934-3.095-2.833-4.748-2.004l-38.875,19.492c-1.651,0.828-2.203,3.069-1.233,5.003l22.565,53.897l1.073,5.65
						c0.095,0.189,0.206,0.363,0.327,0.531c0.025,0.378,0.115,0.728,0.276,1.05c2.174,4.337,16.622,0.824,31.219-6.495
						c14.598-7.319,26.057-16.795,23.882-21.132C277.062,268.432,276.832,268.148,276.542,267.902z"/>
				
			
			
				
					<path fill="#F2CF3B" d="M269.374,264.519c-0.054-0.17-0.118-0.337-0.2-0.499l-29.615-52.194
						c-0.858-1.71-41.773,18.804-40.916,20.515l24.107,54.955c0.083,0.165,0.182,0.316,0.285,0.463
						c0.024,0.326,0.104,0.631,0.244,0.911c1.893,3.775,13.876,1.596,26.769-4.868c12.892-6.464,21.808-14.764,19.915-18.539
						C269.823,264.983,269.623,264.735,269.374,264.519z"/>
				
			
			
				
					<path fill="#FFDD4D" d="M239.669,211.771c-0.858-1.71-42.031,18.934-41.173,20.644l24.255,54.881
						c0.083,0.165,0.182,0.316,0.285,0.463c0.024,0.326,0.104,0.631,0.244,0.911C225.172,292.444,239.669,211.771,239.669,211.771z"
						/>
				
			
			
				
					
						<path fill="#E3E4E5" d="M275.037,237.041c-5.939-11.846-17.328-18.03-28.698-15.581l2.357,4.046
							c8.891-0.424,16.869,4.844,21.453,13.986c1.835,3.66,1.388,12.99-1.277,20.637l2.871,4.927
							C275.766,255.829,277.507,241.968,275.037,237.041z"/>
					
				
			
			
				
					<path fill="#DBDDDC" d="M243.72,218.941l-3.842-6.616c-0.954-1.903-42.072,18.713-41.118,20.616l3.101,7.001
						c0,0,10.147-7.539,20.157-12.558C232.03,222.364,243.72,218.941,243.72,218.941z"/>
				
			
			
				
					<path fill="#EFF2F1" d="M243.063,217.993l-3.494-6.339c-2.13-4.248-43.196,16.342-41.066,20.59l2.919,6.639
						c0,0,10.126-7.397,20.137-12.416C231.57,221.447,243.063,217.993,243.063,217.993z"/>
				
			
			
				
					<path fill="#DBDDDC" d="M189.02,233.924c0,0,0.425,7.41,6.725,9.785c6.298,2.374,7.567-5.276,8.84-8.861
						c5.796-16.312,35.257-23.639,35.257-23.639c-2.055-5.406-6.177-10.744-15.872-8.003c-8.277,2.338-11.709,7.572-14.505,8.549
						c-2.795,0.975-10.998,2.109-14.531,5.582C189.192,222.985,188.821,230.62,189.02,233.924z"/>
				
			
			
				
					<path fill="#E9EEEE" d="M188.728,233.341c0,0,0.424,7.409,6.724,9.783c6.299,2.376,7.713-5.226,8.84-8.861
						c5.018-16.164,35.258-23.637,35.258-23.637c-2.056-5.408-6.177-10.744-15.873-8.005c-8.276,2.34-11.708,7.574-14.504,8.55
						c-2.795,0.974-10.998,2.11-14.531,5.583C188.898,222.4,188.528,230.035,188.728,233.341z"/>
				
			
			
				<path fill="#FFEFAE" d="M230.911,258.16c-1.367,0.685-3.037,0.13-3.722-1.236c-0.685-1.367-0.131-3.036,1.236-3.721
					c1.367-0.685,3.036-0.131,3.721,1.236C232.832,255.805,232.278,257.475,230.911,258.16z M228.778,253.905
					c-0.979,0.491-1.377,1.688-0.886,2.667c0.491,0.98,1.688,1.377,2.668,0.886c0.98-0.491,1.377-1.688,0.886-2.668
					C230.954,253.811,229.757,253.414,228.778,253.905z"/>
			
			
				<path fill="#FFEFAE" d="M238.532,261.994c-0.702,0.352-1.56,0.067-1.912-0.635c-0.352-0.702-0.067-1.56,0.635-1.912
					s1.56-0.067,1.912,0.635S239.234,261.642,238.532,261.994z M237.607,260.149c-0.315,0.158-0.443,0.542-0.285,0.858
					s0.543,0.443,0.858,0.285c0.315-0.158,0.443-0.543,0.285-0.858S237.922,259.991,237.607,260.149z"/>
			
			
				<path fill="#FFEFAE" d="M237.418,253.023c-1.159,0.581-2.576,0.111-3.157-1.049c-0.581-1.159-0.111-2.576,1.048-3.157
					c1.159-0.581,2.576-0.111,3.157,1.048C239.048,251.025,238.577,252.442,237.418,253.023z M235.661,249.519
					c-0.772,0.387-1.086,1.33-0.698,2.103c0.387,0.772,1.331,1.086,2.103,0.699c0.772-0.387,1.085-1.331,0.698-2.104
					C237.377,249.445,236.433,249.132,235.661,249.519z"/>
			
			
				<path fill="#FFEFAE" d="M234.077,243.574c-1.774,0.89-3.943,0.169-4.833-1.607c-0.89-1.774-0.17-3.942,1.605-4.832
					c1.774-0.89,3.942-0.17,4.832,1.604C236.571,240.516,235.851,242.684,234.077,243.574z M231.201,237.838
					c-1.387,0.696-1.95,2.391-1.255,3.777c0.696,1.389,2.392,1.952,3.779,1.257c1.387-0.696,1.95-2.391,1.253-3.78
					C234.283,237.705,232.588,237.142,231.201,237.838z"/>
			
			
				<path fill="#FFEFAE" d="M246.646,270.874c-0.931,0.467-2.068,0.089-2.536-0.843c-0.467-0.931-0.089-2.067,0.842-2.534
					c0.931-0.467,2.068-0.089,2.534,0.841C247.954,269.27,247.577,270.408,246.646,270.874z M245.305,268.199
					c-0.544,0.273-0.765,0.937-0.492,1.48c0.273,0.545,0.937,0.766,1.481,0.493c0.543-0.272,0.764-0.937,0.491-1.482
					C246.513,268.148,245.848,267.927,245.305,268.199z"/>
			
			
				<path fill="#FFEFAE" d="M246.689,279.263c-0.71,0.356-1.578,0.067-1.934-0.643c-0.356-0.709-0.068-1.577,0.643-1.933
					s1.578-0.068,1.933,0.641C247.687,278.039,247.4,278.907,246.689,279.263z M245.75,277.389
					c-0.323,0.162-0.454,0.556-0.293,0.879c0.162,0.324,0.557,0.455,0.88,0.293s0.454-0.557,0.292-0.881
					C246.467,277.358,246.073,277.227,245.75,277.389z"/>
			
			
				<path fill="#FFEFAE" d="M244.706,264.774c-0.931,0.467-2.069,0.089-2.536-0.843c-0.467-0.931-0.089-2.067,0.842-2.534
					c0.931-0.467,2.068-0.089,2.534,0.841C246.014,263.169,245.637,264.307,244.706,264.774z M243.365,262.099
					c-0.544,0.273-0.765,0.937-0.492,1.48c0.273,0.545,0.938,0.765,1.482,0.493c0.543-0.272,0.764-0.937,0.491-1.482
					C244.573,262.047,243.908,261.826,243.365,262.099z"/>
			
		
	
	
		
			
				
					<path fill="#E3E4E5" d="M245.167,203.968c0.178-0.1,0.35-0.212,0.514-0.343l3.027-4.401l43.333-39.818
						c1.69-1.352,2.125-3.618,0.97-5.062l-27.172-33.954c-1.154-1.442-3.461-1.515-5.151-0.163l-48.004,33.312l-5.302,2.228
						c-0.165,0.132-0.312,0.277-0.451,0.43c-0.364,0.103-0.688,0.264-0.97,0.489c-3.788,3.031,2.662,16.428,12.864,29.177
						c10.203,12.75,21.861,21.98,25.649,18.949C244.757,204.587,244.986,204.302,245.167,203.968z"/>
				
			
			
				
					<path fill="#F2CF3B" d="M246.98,196.252c0.155-0.088,0.304-0.186,0.447-0.3l44.868-39.851
						c1.494-1.195-27.104-36.932-28.598-35.736l-48.718,35.04c-0.144,0.115-0.271,0.244-0.393,0.375
						c-0.313,0.091-0.595,0.233-0.84,0.429c-3.297,2.638,1.333,13.904,10.345,25.164c9.011,11.26,18.989,18.248,22.285,15.61
						C246.62,196.788,246.821,196.541,246.98,196.252z"/>
				
			
			
				
					<path fill="#FFDD4D" d="M292.371,156.197c1.494-1.195-27.285-37.157-28.779-35.961l-48.614,35.17
						c-0.144,0.115-0.271,0.244-0.393,0.375c-0.313,0.091-0.595,0.233-0.84,0.429C210.449,158.847,292.371,156.197,292.371,156.197z
						"/>
				
			
			
				
					
						<path fill="#E3E4E5" d="M275.035,196.058c10.346-8.28,14.018-20.708,9.252-31.317l-3.466,3.149
							c2.27,8.607-1.219,17.509-9.203,23.898c-3.197,2.558-12.414,4.067-20.45,3.056l-4.22,3.835
							C256.812,200.69,270.732,199.502,275.035,196.058z"/>
					
				
			
			
				
					<path fill="#DBDDDC" d="M286.204,161.655l5.669-5.138c1.662-1.33-27.077-37.243-28.74-35.913l-6.2,4.493
						c0,0,9.49,8.351,16.487,17.094C280.418,150.936,286.204,161.655,286.204,161.655z"/>
				
			
			
				
					<path fill="#EFF2F1" d="M286.994,160.814l5.471-4.74c3.71-2.969-24.993-38.837-28.704-35.868l-5.884,4.24
						c0,0,9.347,8.361,16.344,17.104C281.219,150.295,286.994,160.814,286.994,160.814z"/>
				
			
			
				
					<path fill="#DBDDDC" d="M260.14,111.284c0,0-7.159,1.962-8.167,8.618c-1.008,6.654,6.738,6.3,10.51,6.797
						c17.163,2.266,30.473,29.551,30.473,29.551c4.858-3.137,9.219-8.283,4.516-17.192c-4.013-7.607-9.848-9.872-11.387-12.402
						c-1.536-2.53-4.356-10.316-8.491-13.047C270.875,109.169,263.33,110.4,260.14,111.284z"/>
				
			
			
				
					<path fill="#E9EEEE" d="M260.65,110.876c0,0-7.157,1.96-8.165,8.617c-1.01,6.656,6.72,6.453,10.51,6.797
						c16.855,1.536,30.472,29.552,30.472,29.552c4.861-3.139,9.219-8.283,4.517-17.194c-4.015-7.606-9.849-9.871-11.388-12.402
						c-1.535-2.53-4.357-10.316-8.492-13.046C271.386,108.76,263.841,109.991,260.65,110.876z"/>
				
			
			
				<path fill="#FFEFAE" d="M245.176,157.309c-0.955-1.194-0.761-2.943,0.433-3.898c1.194-0.955,2.942-0.761,3.897,0.433
					c0.955,1.194,0.762,2.942-0.432,3.897C247.88,158.696,246.131,158.502,245.176,157.309z M248.892,154.334
					c-0.685-0.855-1.938-0.995-2.793-0.31c-0.856,0.685-0.995,1.938-0.31,2.794c0.685,0.856,1.938,0.995,2.794,0.31
					C249.438,156.443,249.577,155.19,248.892,154.334z"/>
			
			
				<path fill="#FFEFAE" d="M243.016,165.561c-0.491-0.613-0.391-1.512,0.222-2.002c0.613-0.491,1.512-0.391,2.002,0.222
					c0.491,0.613,0.391,1.512-0.222,2.002C244.405,166.274,243.507,166.174,243.016,165.561z M244.627,164.272
					c-0.22-0.275-0.623-0.32-0.898-0.1c-0.275,0.22-0.32,0.623-0.1,0.898s0.623,0.32,0.898,0.1
					C244.803,164.95,244.847,164.547,244.627,164.272z"/>
			
			
				<path fill="#FFEFAE" d="M251.557,162.601c-0.81-1.012-0.646-2.496,0.368-3.307c1.012-0.81,2.496-0.646,3.306,0.367
					c0.81,1.012,0.646,2.496-0.367,3.306C253.851,163.778,252.368,163.613,251.557,162.601z M254.618,160.152
					c-0.54-0.674-1.527-0.784-2.202-0.244c-0.675,0.54-0.785,1.528-0.245,2.203c0.54,0.674,1.528,0.784,2.203,0.244
					C255.048,161.814,255.157,160.826,254.618,160.152z"/>
			
			
				<path fill="#FFEFAE" d="M260.101,157.362c-1.24-1.55-0.988-3.82,0.563-5.062c1.55-1.24,3.82-0.988,5.06,0.562
					c1.24,1.55,0.989,3.82-0.561,5.06C263.612,159.163,261.342,158.912,260.101,157.362z M265.112,153.352
					c-0.97-1.212-2.745-1.409-3.956-0.439c-1.213,0.971-1.411,2.746-0.441,3.958c0.97,1.212,2.746,1.408,3.958,0.437
					C265.884,156.339,266.081,154.564,265.112,153.352z"/>
			
			
				<path fill="#FFEFAE" d="M236.024,175.35c-0.651-0.813-0.518-2.004,0.295-2.656c0.813-0.65,2.003-0.518,2.654,0.295
					c0.65,0.813,0.519,2.003-0.294,2.654C237.865,176.294,236.674,176.162,236.024,175.35z M238.36,173.48
					c-0.38-0.475-1.076-0.552-1.55-0.173c-0.476,0.381-0.553,1.076-0.173,1.552c0.38,0.475,1.076,0.552,1.551,0.171
					C238.663,174.65,238.74,173.955,238.36,173.48z"/>
			
			
				<path fill="#FFEFAE" d="M227.828,177.142c-0.496-0.62-0.395-1.53,0.226-2.026c0.62-0.496,1.528-0.395,2.025,0.225
					c0.496,0.62,0.396,1.529-0.224,2.025C229.234,177.862,228.325,177.762,227.828,177.142z M229.465,175.832
					c-0.226-0.282-0.639-0.328-0.921-0.103c-0.283,0.226-0.329,0.64-0.103,0.922s0.64,0.328,0.922,0.101
					C229.645,176.527,229.691,176.114,229.465,175.832z"/>
			
			
				<path fill="#FFEFAE" d="M241.585,172.18c-0.651-0.813-0.518-2.005,0.295-2.656c0.813-0.65,2.003-0.518,2.654,0.295
					c0.65,0.813,0.519,2.003-0.294,2.654C243.427,173.124,242.236,172.992,241.585,172.18z M243.922,170.31
					c-0.38-0.475-1.076-0.552-1.55-0.173c-0.476,0.381-0.553,1.077-0.173,1.552c0.38,0.475,1.076,0.552,1.551,0.171
					C244.224,171.48,244.301,170.785,243.922,170.31z"/>
</g>
    
    <g id="beer" style="display:none">		
				<path fill="#E3E4E5" d="M217.11,246.048c0.086-0.526,0.139-1.059,0.139-1.606l-4.031-13.338L202.75,77.954
					c0-5.645-3.905-10.225-8.728-10.225H80.584c-4.818,0-8.726,4.58-8.726,10.225l-10.395,152.06l-4.103,14.429
					c0,0.552,0.056,1.088,0.141,1.619c-0.384,0.91-0.584,1.833-0.584,2.771c0,12.655,37.797,21.354,80.39,21.354
					c42.596,0,80.395-8.699,80.395-21.354C217.702,247.891,217.497,246.96,217.11,246.048z"/>
			
		
		
			
				<path fill="#F2CF3B" d="M204.351,229.778c0.072-0.459,0.117-0.923,0.117-1.398l-8.035-156.33c0-4.991-119.392-4.991-119.392,0
					l-8.037,156.33c0,0.48,0.054,0.95,0.123,1.411c-0.325,0.787-0.496,1.593-0.496,2.409c0,11.014,30.49,19.945,68.111,19.945
					c37.618,0,68.114-8.931,68.114-19.945C204.855,231.384,204.679,230.573,204.351,229.778z"/>
			
		
		
			
				<path fill="#FFDD4D" d="M196.754,72.05c0-4.991-120.145-4.991-120.145,0l-7.605,156.33c0,0.48,0.054,0.95,0.123,1.411
					c-0.325,0.787-0.496,1.593-0.496,2.409C68.63,243.215,196.754,72.05,196.754,72.05z"/>
			
		
		
			
				
					<path fill="#E3E4E5" d="M249.681,172.324c0-34.566-19.327-62.301-48.702-69.885l0.765,12.191
						c21.229,9.406,33.673,31.019,33.673,57.694c0,10.681-11.951,31.912-27.105,46.629l0.934,14.845
						C229.415,216.987,249.681,186.702,249.681,172.324z"/>
				
			
		
		
			
				<path fill="#DBDDDC" d="M197.818,93.505l-1.224-19.919c0-5.554-119.982-5.554-119.982,0l-0.955,19.951
					c0,0,32.475-5.717,61.685-5.717C166.557,87.821,197.818,93.505,197.818,93.505z"/>
			
		
		
			
				<path fill="#EFF2F1" d="M197.394,90.526l-0.736-18.868c0-12.396-119.833-12.396-119.833,0L75.87,90.553
					c0,0,32.261-5.41,61.472-5.41C166.557,85.143,197.394,90.526,197.394,90.526z"/>
			
		
		
			
				<path fill="#DBDDDC" d="M52.75,64.49c0,0-7.672,17.777,4.242,30.68c11.911,12.898,23.813-3.454,30.973-10.326
					c32.587-31.261,109.851-13.901,109.851-13.901c1.528-15.008-1.843-32.275-27.655-37.218
					c-22.034-4.226-36.156,3.967-43.817,2.977c-7.656-0.995-28.111-7.941-40.411-3.972C65.939,39.183,56.149,56.554,52.75,64.49z"/>
			
		
		
			
				<path fill="#E9EEEE" d="M52.75,62.788c0,0-7.672,17.771,4.242,30.674c11.911,12.906,24.096-3.169,30.973-10.326
					c30.6-31.824,109.851-13.895,109.851-13.895c1.528-15.016-1.843-32.275-27.655-37.223c-22.034-4.22-36.156,3.972-43.817,2.98
					c-7.656-0.998-28.111-7.939-40.411-3.969C65.939,37.476,56.149,54.847,52.75,62.788z"/>
			
		
		
			<path fill="#FFEFAE" d="M122.096,169.982c-3.988,0-7.233-3.247-7.233-7.234c0-3.988,3.245-7.232,7.233-7.232
				c3.988,0,7.233,3.244,7.233,7.232C129.329,166.736,126.084,169.982,122.096,169.982z M122.096,157.565
				c-2.858,0-5.184,2.326-5.184,5.183c0,2.859,2.326,5.186,5.184,5.186c2.858,0,5.185-2.326,5.185-5.186
				C127.281,159.891,124.955,157.565,122.096,157.565z"/>
		
		
			<path fill="#FFEFAE" d="M135.384,187.831c-2.049,0-3.716-1.667-3.716-3.716c0-2.049,1.667-3.716,3.716-3.716
				c2.049,0,3.716,1.667,3.716,3.716C139.1,186.163,137.432,187.831,135.384,187.831z M135.384,182.448
				c-0.919,0-1.667,0.747-1.667,1.667c0,0.92,0.748,1.667,1.667,1.667c0.919,0,1.667-0.747,1.667-1.667
				C137.051,183.195,136.302,182.448,135.384,182.448z"/>
		
		
			<path fill="#FFEFAE" d="M143.276,165.61c-3.383,0-6.135-2.753-6.135-6.138c0-3.383,2.753-6.135,6.135-6.135
				c3.382,0,6.135,2.753,6.135,6.135C149.411,162.857,146.658,165.61,143.276,165.61z M143.276,155.385
				c-2.253,0-4.087,1.833-4.087,4.087c0,2.254,1.834,4.089,4.087,4.089s4.087-1.835,4.087-4.089
				C147.362,157.218,145.528,155.385,143.276,155.385z"/>
		
		
			<path fill="#FFEFAE" d="M146.531,139.67c-5.178,0-9.391-4.215-9.391-9.398c0-5.178,4.213-9.39,9.391-9.39
				c5.178,0,9.391,4.212,9.391,9.39C155.922,135.456,151.709,139.67,146.531,139.67z M146.531,122.931
				c-4.048,0-7.343,3.295-7.343,7.341c0,4.052,3.294,7.349,7.343,7.349c4.048,0,7.342-3.297,7.342-7.349
				C153.874,126.226,150.579,122.931,146.531,122.931z"/>
		
		
			<path fill="#FFEFAE" d="M143.922,218.025c-2.717,0-4.927-2.212-4.927-4.93c0-2.715,2.21-4.924,4.927-4.924
				c2.715,0,4.926,2.209,4.926,4.924C148.848,215.814,146.638,218.025,143.922,218.025z M143.922,210.22
				c-1.587,0-2.878,1.291-2.878,2.876c0,1.59,1.291,2.881,2.878,2.881c1.586,0,2.877-1.291,2.877-2.881
				C146.799,211.511,145.508,210.22,143.922,210.22z"/>
		
		
			<path fill="#FFEFAE" d="M134.215,237.637c-2.073,0-3.759-1.689-3.759-3.761c0-2.07,1.686-3.756,3.759-3.756
				c2.073,0,3.758,1.686,3.758,3.756C137.974,235.948,136.288,237.637,134.215,237.637z M134.215,232.168
				c-0.943,0-1.71,0.766-1.71,1.707c0,0.944,0.767,1.713,1.71,1.713s1.71-0.768,1.71-1.713
				C135.925,232.934,135.158,232.168,134.215,232.168z"/>
		
		
			<path fill="#FFEFAE" d="M146.531,201.531c-2.717,0-4.927-2.211-4.927-4.93c0-2.715,2.21-4.924,4.927-4.924
				c2.715,0,4.926,2.209,4.926,4.924C151.457,199.32,149.247,201.531,146.531,201.531z M146.531,193.726
				c-1.587,0-2.879,1.291-2.879,2.876c0,1.59,1.291,2.881,2.879,2.881c1.586,0,2.877-1.291,2.877-2.881
				C149.408,195.017,148.117,193.726,146.531,193.726z"/>	
</g>
    
    <g id="pizza" style="display:none">			
					<path fill="#EA9F3C" d="M149.999,8.064c-72.998,0-132.173,59.175-132.173,132.173c0,36.694,14.955,69.884,39.093,93.833
						l93.08-93.833v132.172c72.998,0,132.176-59.172,132.176-132.172C282.174,67.239,222.997,8.064,149.999,8.064z"/>
				
			
		
		
			
				
					<path fill="#E98F23" d="M149.999,17.078c-68.021,0-123.162,55.141-123.162,123.159c0,34.192,13.935,65.12,36.428,87.431
						l86.734-87.431v123.16c68.023,0,123.162-55.144,123.162-123.16C273.161,72.22,218.022,17.078,149.999,17.078z"/>
				
			
		
		
			
				
					<path fill="#E99323" d="M149.999,20.079c-66.361,0-120.158,53.797-120.158,120.158c0,33.359,13.594,63.53,35.54,85.302
						l84.618-85.302v120.157c66.364,0,120.158-53.794,120.158-120.157C270.157,73.876,216.363,20.079,149.999,20.079z"/>
				
			
		
		
			
				
					<path fill="#EAD760" d="M149.985,26.193c-24.945-12.071-40.091,5.397-72.875,26.302
						c-27.612,17.606-32.742,50.791-41.225,87.793c-3.207,14.006,7.709,27.755,7.506,40.778
						c-0.261,16.331,14.856,28.927,26.244,40.227l80.35-81.005v114.099c23.896-7.709,58.524-6.327,74.188-27.412
						c26.033-35.036,48.208-53.005,39.909-86.687c-13.106-53.194-18.636-71.771-47.283-92.495
						C198.02,34.201,173.881,37.755,149.985,26.193z"/>
				
			
		
		
			
				
					<path fill="#F8E37F" d="M77.11,52.496c-27.612,17.606-32.742,50.791-41.225,87.793c-3.207,14.006,7.709,27.755,7.506,40.778
						c-0.261,16.331,14.856,28.927,26.244,40.227l80.35-81.005v114.099C191.554,161.763,109.894,31.59,77.11,52.496z"/>
				
			
		
		
			
				
					<path fill="#EC2224" d="M227.681,177.748c4.196,9.054-0.83,20.3-11.222,25.118c-10.395,4.818-22.226,1.382-26.419-7.667
						c-4.199-9.054,0.827-20.3,11.22-25.118C211.657,165.258,223.485,168.694,227.681,177.748z"/>
				
			
			
				
					<path fill="#DA1F26" d="M218.569,175.336c1.363,2.929-4.212,5.639-11.14,8.851c-6.93,3.212-12.172,6.626-13.533,3.692
						c-1.361-2.935,1.68-11.108,8.608-14.32C209.435,170.348,217.211,172.396,218.569,175.336z"/>
				
			
			
				
					<path fill="#DA1F26" d="M222.93,184.742c1.36,2.934-2.379,9.587-9.31,12.804c-6.93,3.206-14.845,0.854-16.205-2.081
						c-1.361-2.934,4.351-5.335,11.281-8.547C215.626,183.702,221.57,181.813,222.93,184.742z"/>
				
			
		
		
			
				
					<path fill="#EC2224" d="M196.612,49.038c0,9.982-9.289,18.07-20.743,18.07c-11.46,0-20.748-8.088-20.748-18.07
						c0-9.977,9.289-18.065,20.748-18.065C187.323,30.974,196.612,39.062,196.612,49.038z"/>
				
			
			
				
					<path fill="#DA1F26" d="M189.361,43.015c0,3.239-6.189,3.351-13.829,3.351c-7.637,0-13.829,0.891-13.829-2.345
						c0-3.23,6.191-9.366,13.829-9.366C183.173,34.655,189.361,39.785,189.361,43.015z"/>
				
			
			
				
					<path fill="#DA1F26" d="M189.361,53.392c0,3.236-6.189,7.696-13.829,7.696c-7.637,0-13.829-5.466-13.829-8.699
						c0-3.236,6.191-3.014,13.829-3.014C183.173,49.375,189.361,50.159,189.361,53.392z"/>
				
			
		
		
			
				
					<path fill="#EC2224" d="M128.989,136.508c-8.72-4.492-12.164-15.173-7.688-23.856s15.168-12.076,23.885-7.584
						c8.723,4.495,12.164,15.176,7.688,23.854C148.398,137.607,137.707,141.003,128.989,136.508z"/>
				
			
			
				
					<path fill="#DA1F26" d="M137.08,133.728c-2.825-1.459-0.504-6.199,2.478-11.991c2.982-5.783,4.62-10.881,7.448-9.425
						c2.822,1.456,5.767,8.915,2.785,14.704C146.808,132.803,139.905,135.185,137.08,133.728z"/>
				
			
			
				
					<path fill="#DA1F26" d="M128.018,129.052c-2.83-1.456-4.311-8.155-1.326-13.941c2.985-5.789,10.177-8.021,13.005-6.565
						c2.825,1.459,0.213,6.05-2.769,11.833C133.942,126.174,130.84,130.506,128.018,129.052z"/>
				
			
		
		
			
				
					<path fill="#A31E22" d="M118.959,88.919c0,12.447-11.012,26.537-24.91,26.537c-13.89,0-25.155-10.086-25.155-22.53
						c0-12.444,11.265-22.53,25.155-22.53C107.947,70.395,118.959,76.477,118.959,88.919z"/>
				
			
			
				
					<path fill="#B73535" d="M116.601,88.919c0,11.281-8.579,23.032-21.173,23.032c-12.591,0-24.176-7.747-24.176-19.025
						s10.209-20.418,22.797-20.418C106.645,72.508,116.601,77.64,116.601,88.919z"/>
				
			
			
				
					<path fill="#C13B3B" d="M95.428,111.951c-12.591,0-24.176-7.747-24.176-19.025s10.209-20.418,22.797-20.418
						C106.645,72.508,108.022,111.951,95.428,111.951z"/>
				
			
		
		
			
				
					<path fill="#A31E22" d="M230.106,110.2c0,12.444-11.014,26.534-24.91,26.534c-13.893,0-25.155-10.086-25.155-22.53
						c0-12.444,11.263-22.533,25.155-22.533C219.091,91.671,230.106,97.754,230.106,110.2z"/>
				
			
			
				
					<path fill="#B73535" d="M227.748,110.2c0,11.276-8.582,23.027-21.173,23.027s-24.176-7.741-24.176-19.022
						c0-11.278,10.206-20.42,22.797-20.42C217.79,93.784,227.748,98.917,227.748,110.2z"/>
				
			
			
				
					<path fill="#C13B3B" d="M206.575,133.227c-12.591,0-24.176-7.741-24.176-19.022c0-11.278,10.206-20.42,22.797-20.42
						C217.79,93.784,219.166,133.227,206.575,133.227z"/>
				
			
		
		
			
				
					<path fill="#EC2224" d="M83.533,193.273c-9.072,4.161-20.295-0.907-25.072-11.321c-4.775-10.414-1.294-22.226,7.776-26.387
						c9.07-4.162,20.295,0.912,25.075,11.327C96.087,177.305,92.603,189.117,83.533,193.273z"/>
				
			
			
				
					<path fill="#DA1F26" d="M85.985,184.176c-2.942,1.344-5.621-4.236-8.806-11.177c-3.185-6.946-6.578-12.201-3.636-13.546
						c2.937-1.35,11.094,1.723,14.282,8.664C91.008,175.064,88.922,182.826,85.985,184.176z"/>
				
			
			
				
					<path fill="#DA1F26" d="M76.558,188.498c-2.942,1.35-9.576-2.417-12.762-9.363c-3.185-6.941-0.797-14.848,2.142-16.198
						c2.94-1.35,5.319,4.375,8.504,11.321C77.627,181.199,79.495,187.153,76.558,188.498z"/>
				
			
		
		
			
				
					<path fill="#EB9C22" d="M142.239,291.936c-36.308,0-69.194-14.64-93.085-38.333l93.085-93.84V291.936z"/>
				
			
			
				
					<path fill="#EA9F3C" d="M49.154,253.603c23.891,23.693,56.777,38.333,93.085,38.333V281.82
						c-33.07-1.232-63.035-14.602-85.56-35.81L49.154,253.603z"/>
				
			
			
				
					<path fill="#F8E37F" d="M62.884,237.864c0,0,34.884,26.473,47.979,27.252c13.1,0.79,19.999,6.456,32.126,8.798l-0.75-114.151
						L62.884,237.864z"/>
				
			
		
		
			
				
					<path fill="#A31E22" d="M150.127,177.785c-0.043,0-0.085,0.005-0.128,0.005v2.118c0.043,0,0.085-0.011,0.128-0.011
						c12.591,0,22.549,5.132,22.549,16.411s-8.582,23.032-21.173,23.032c-0.504,0-1.003-0.032-1.504-0.059v3.559
						c0.043,0,0.085,0.005,0.128,0.005c13.893,0,24.904-14.095,24.904-26.537S164.02,177.785,150.127,177.785z"/>
				
			
			
				
					<path fill="#B73535" d="M151.503,219.34c12.591,0,21.173-11.753,21.173-23.032s-9.958-16.411-22.549-16.411
						c-0.043,0-0.085,0.011-0.128,0.011v39.373C150.5,219.308,150.999,219.34,151.503,219.34z"/>
				
			
		
		
			
				
					<path fill="#A31E22" d="M120.068,219.212c0-11.241,10.142-20.354,22.672-20.412v-2.107
						c-13.834,0.059-25.032,10.115-25.032,22.52c0,12.409,11.198,22.466,25.032,22.525v-3.553
						C130.75,237.592,120.068,230.043,120.068,219.212z"/>
				
			
			
				
					<path fill="#C13B3B" d="M120.068,219.212c0,10.83,10.681,18.38,22.672,18.972V198.8
						C130.211,198.859,120.068,207.971,120.068,219.212z"/>
				
			
		
		
			
				
					<path fill="#76692A" d="M184.608,149.957c0,3.735-1.755,7.512-6.76,7.01c-4.127-0.416-7.819-4.268-6.509-7.757
						c1.504-4.007,2.358-5.758,6.509-5.758C181.994,143.452,184.608,146.227,184.608,149.957z"/>
				
			
			
				
					<path fill="#8F8547" d="M179.769,152.614c-1.355,1.014-3.201,1.398-4.375-0.555c-0.966-1.611-0.565-3.996,1.059-4.466
						c1.859-0.539,2.729-0.704,3.849,0.806C181.428,149.903,181.127,151.605,179.769,152.614z"/>
				
			
		
		
			
				
					<path fill="#76692A" d="M177.096,88.876c0,3.735-1.753,7.509-6.76,7.01c-4.127-0.411-7.819-4.268-6.506-7.763
						c1.502-4.001,2.361-5.754,6.506-5.754C174.487,82.37,177.096,85.144,177.096,88.876z"/>
				
			
			
				
					<path fill="#8F8547" d="M172.26,91.533c-1.358,1.011-3.204,1.398-4.378-0.555c-0.966-1.614-0.565-3.996,1.062-4.465
						c1.862-0.542,2.729-0.704,3.852,0.806C173.916,88.825,173.617,90.524,172.26,91.533z"/>
				
			
		
		
			
				
					<path fill="#5C2A2A" d="M109.257,145.955c0,3.729-1.753,7.506-6.76,7.005c-4.127-0.411-7.819-4.268-6.506-7.762
						c1.502-4.003,2.358-5.75,6.506-5.75C106.645,139.448,109.257,142.217,109.257,145.955z"/>
				
			
			
				
					<path fill="#864F4F" d="M104.421,148.607c-1.355,1.014-3.206,1.398-4.375-0.56c-0.971-1.606-0.566-3.991,1.056-4.462
						c1.862-0.536,2.732-0.701,3.852,0.802C106.077,145.902,105.776,147.599,104.421,148.607z"/>
				
			
		
		
			
				
					<path fill="#5C2A2A" d="M131.134,50.602c-3.276,1.798-7.429,2.075-9.398-2.55c-1.624-3.817-0.021-8.91,3.673-9.438
						c4.231-0.614,6.184-0.704,8.179,2.934C135.583,45.187,134.404,48.809,131.134,50.602z"/>
				
			
			
				
					<path fill="#864F4F" d="M126.476,47.641c-1.539-0.704-2.764-2.134-1.617-4.103c0.95-1.624,3.233-2.417,4.426-1.216
						c1.366,1.366,1.928,2.049,1.144,3.761C129.648,47.79,128.012,48.345,126.476,47.641z"/>
				
			
		
		
			
				
					<path fill="#5C2A2A" d="M247.787,148.735c-3.273,1.792-7.427,2.07-9.401-2.556c-1.622-3.818-0.019-8.908,3.676-9.442
						c4.231-0.608,6.181-0.699,8.179,2.94C252.236,143.313,251.057,146.937,247.787,148.735z"/>
				
			
			
				
					<path fill="#864F4F" d="M243.129,145.768c-1.542-0.704-2.764-2.135-1.617-4.101c0.947-1.622,3.233-2.42,4.423-1.222
						c1.368,1.371,1.926,2.054,1.147,3.76C246.301,145.918,244.665,146.473,243.129,145.768z"/>
				
			
		
		
			
				
					<path fill="#76692A" d="M93.153,231.44c0,3.735-1.755,7.512-6.76,7.01c-4.129-0.411-7.821-4.263-6.509-7.757
						c1.499-4.002,2.361-5.757,6.509-5.757C90.539,224.937,93.153,227.711,93.153,231.44z"/>
				
			
			
				
					<path fill="#8F8547" d="M88.311,234.102c-1.355,1.008-3.201,1.393-4.375-0.56c-0.963-1.611-0.568-4.001,1.059-4.465
						c1.862-0.539,2.732-0.699,3.852,0.806C89.97,231.387,89.669,233.094,88.311,234.102z"/>
				
			
		
		
			
				
					<path fill="#5C2A2A" d="M203.382,224.553c0,3.735-1.755,7.512-6.76,7.01c-4.129-0.411-7.821-4.268-6.509-7.763
						c1.502-4.001,2.358-5.757,6.509-5.757C200.768,218.044,203.382,220.823,203.382,224.553z"/>
				
			
			
				
					<path fill="#864F4F" d="M198.543,227.21c-1.355,1.014-3.204,1.398-4.377-0.555c-0.968-1.611-0.563-4.002,1.059-4.466
						c1.862-0.539,2.732-0.704,3.852,0.806C200.2,224.505,199.898,226.201,198.543,227.21z"/>
				
			
		
		
			
				
					<path fill="#76692A" d="M62.244,117.222c0,3.734-1.753,7.512-6.76,7.01c-4.127-0.411-7.819-4.263-6.509-7.76
						c1.502-4.009,2.361-5.759,6.509-5.759C59.632,110.713,62.244,113.49,62.244,117.222z"/>
				
			
			
				
					<path fill="#8F8547" d="M57.402,119.878c-1.355,1.014-3.198,1.398-4.375-0.56c-0.966-1.606-0.566-3.991,1.061-4.46
						c1.862-0.541,2.729-0.704,3.852,0.806C59.061,117.174,58.762,118.87,57.402,119.878z"/>
	
</g>
    
    <g id="fries" style="display:none">		
					<polygon fill="#F5E11C" points="81.254,150.175 71.421,150.922 57.689,52.603 67.521,51.856 					"/>
				
			
			
				
					<polygon fill="#F5E11C" points="93.013,156.502 83.159,156.502 76.884,57.429 86.744,57.429 					"/>
				
			
			
				
					<polygon fill="#F5E11C" points="107.257,147.214 97.398,147.214 91.124,48.14 100.983,48.14 					"/>
				
			
			
				
					<polygon fill="#F5E11C" points="122.121,154.024 112.262,154.024 105.988,54.951 115.847,54.951 					"/>
				
			
			
				
					<polygon fill="#F5E11C" points="134.37,147.214 124.511,147.214 118.237,48.14 128.097,48.14 					"/>
				
			
			
				
					<polygon fill="#F5E11C" points="164.445,146.597 154.585,146.597 148.311,47.521 158.171,47.521 					"/>
				
			
			
				
					<polygon fill="#F5E11C" points="148.343,139.166 138.489,139.166 132.21,40.089 142.069,40.089 					"/>
				
			
			
				
					<polygon fill="#F5E11C" points="179.927,153.405 170.068,153.405 163.789,54.334 173.653,54.334 					"/>
				
			
			
				
					<polygon fill="#F5E11C" points="204.085,153.136 194.29,151.53 196.525,52.126 206.315,53.731 					"/>
				
			
			
				
					<polygon fill="#F5E11C" points="188.501,151.285 178.711,149.673 180.941,50.272 190.731,51.88 					"/>
				
			
			
				
					<polygon fill="#F5E11C" points="216.809,150.727 208.188,144.109 237.531,53.291 246.147,59.909 					"/>
				
			
			
				
					<polygon fill="#F5E11C" points="208.097,156.873 198.734,152.586 215.337,55.817 224.7,60.101 					"/>
				
			
		
		
			
				
					<path fill="#DA1F26" d="M219.338,259.911c0,0-31.845-4.335-69.394-4.335s-69.282,4.335-69.282,4.335
						c0-1.054-20.332-124.269-27.017-164.733c-1.318-7.955,1.046-5.898,1.046-5.898s7.325,0.091,19.788,0.091
						c0,0,32.315,23.168,73.38,23.168c41.059,0,80.769-23.176,80.769-23.176c12.463,0,16.688-0.083,16.688-0.083l1.051,5.911
						L219.338,259.911z"/>
				
			
		
		
			
				
					<path fill="#DB2F2C" d="M149.944,255.576c-37.549,0-69.282,4.335-69.282,4.335c0-1.264-27.769-169.359-27.769-169.359
						s7.491-1.542,19.911-1.542c0,0,34.113,23.528,75.055,23.528L149.944,255.576z"/>
				
			
		
		
			
				
					<path fill="#F3C121" d="M61.615,143.498c0.736,4.455,1.488,9.011,2.251,13.621h172.336l2.241-13.621H61.615z"/>
				
			
		
		
			
				
					<path fill="#F7CC55" d="M61.615,143.498c0.736,4.455,1.488,9.011,2.251,13.621h84.69l-0.229-13.661L61.615,143.498z"/>
				
			
		
		
			
				
					<path fill="#F3C121" d="M147.788,118.42c42.415,0,83.437-23.176,83.437-23.176c8.013,0,12.724-0.032,15.141-0.056l2.092-12.722
						c0,0-4.364,0.088-17.233,0.088c0,0-41.022,23.17-83.437,23.17c-42.42,0-75.802-23.165-75.802-23.165
						c-12.874,0-20.444-0.093-20.444-0.093s0.789,4.772,2.102,12.714c3.084,0.032,9.443,0.072,18.342,0.072
						C71.987,95.252,105.369,118.42,147.788,118.42z"/>
				
			
		
		
			
				
					<path fill="#F7CC55" d="M147.788,118.42v-12.695c-42.42,0-75.802-23.165-75.802-23.165c-12.874,0-20.444-0.093-20.444-0.093
						s0.789,4.772,2.102,12.714c3.084,0.032,9.443,0.072,18.342,0.072C71.987,95.252,105.369,118.42,147.788,118.42z"/>
</g>
    
    <g id="sleep" style="display:none">
		<path fill="#D0E3E5" d="M272.18,68.762c-0.555-0.138-1.126-0.235-1.718-0.235H94.381c-1.995,0-3.788,0.827-5.074,2.145
			c-1.323,1.291-2.145,3.084-2.145,5.076v90.401c0,3.924,3.18,7.101,7.101,7.101c3.921,0,7.101-3.177,7.101-7.101v-44.015h162.588
			v44.015c0,3.924,3.18,7.101,7.096,7.101c3.927,0,7.106-3.177,7.106-7.101V75.748C278.155,72.209,275.562,69.301,272.18,68.762z"/>
		<polygon fill="#94C5C5" points="198.043,179.879 213.184,179.879 263.953,133.848 263.953,122.135 101.365,122.135 
			35.214,179.879 		"/>
		<polygon fill="#8BBEC0" points="198.043,179.879 213.184,179.879 263.953,133.848 263.953,122.135 		"/>
		<path fill="#5EACB4" d="M105.388,122.071c0,0,9.598-10.054,35.148-10.054c25.555,0,24.638,2.316,39.437,10.054H105.388z"/>
		<path fill="#5EACB4" d="M258.511,122.071c0,0-6.893-10.041-34.572-10.041c-27.673,0-24.958,2.166-40.014,10.041H258.511z"/>
		<path fill="#1A7877" d="M131.306,151.955c-52.898,0-85.202,20.231-85.202,20.231h169.337
			C215.441,172.186,184.198,151.955,131.306,151.955z"/>
		
			<path fill="#41979F" d="M208.932,170.338l-10.889,9.542h14.218l-1.441-9.112C210.82,170.767,210.148,170.61,208.932,170.338z"/>
			<polygon fill="#228080" points="212.261,179.879 212.949,184.257 224.895,169.268 213.184,179.879 			"/>
			<path fill="#28898E" d="M261.584,123.196c-94.896-7.453-164.125,0-164.125,0l-52.423,49.345
				c32.992-30.026,147.842-5.775,163.895-2.203l49.996-43.799L261.584,123.196z"/>
			<path fill="#228080" d="M208.932,170.338c1.216,0.272,1.889,0.429,1.889,0.429l1.441,9.112h0.923l11.711-10.611l34.033-42.729
				L208.932,170.338z"/>
		
		
			<path fill="#D0E3E5" d="M205.736,126.867c3.921,0,7.101,3.177,7.101,7.101v90.404c0,3.921-3.18,7.101-7.101,7.101l0,0
				c-3.921,0-7.101-3.18-7.101-7.101v-90.404C198.635,130.044,201.815,126.867,205.736,126.867L205.736,126.867z"/>
			
				<path fill="#D0E3E5" d="M212.245,173.251c0,3.924-3.18,7.101-7.107,7.101H29.063c-3.921,0-7.101-3.177-7.101-7.101l0,0
					c0-3.919,3.18-7.101,7.101-7.101h176.075C209.065,166.15,212.245,169.332,212.245,173.251L212.245,173.251z"/>
				<path fill="#D0E3E5" d="M212.245,133.848c0,3.924-3.18,7.101-7.107,7.101H29.063c-3.921,0-7.101-3.177-7.101-7.101l0,0
					c0-3.919,3.18-7.101,7.101-7.101h176.075C209.065,126.747,212.245,129.929,212.245,133.848L212.245,133.848z"/>
				<path fill="#D0E3E5" d="M28.951,126.867c3.916,0,7.09,3.177,7.09,7.101v90.404c0,3.921-3.174,7.101-7.09,7.101l0,0
					c-3.927,0-7.106-3.18-7.106-7.101v-90.404C21.845,130.044,25.024,126.867,28.951,126.867L28.951,126.867z"/>
				
					<path fill="#D0E3E5" d="M75.452,126.867c1.568,0,2.844,3.18,2.844,7.101v36.45c0,3.916-1.275,7.096-2.844,7.096l0,0
						c-1.568,0-2.838-3.18-2.838-7.096v-36.45C72.614,130.047,73.884,126.867,75.452,126.867L75.452,126.867z"/>
					<path fill="#D0E3E5" d="M47.171,126.867c1.563,0,2.833,3.18,2.833,7.101v36.45c0,3.916-1.27,7.096-2.833,7.096l0,0
						c-1.569,0-2.844-3.18-2.844-7.096v-36.45C44.327,130.047,45.602,126.867,47.171,126.867L47.171,126.867z"/>
					<path fill="#D0E3E5" d="M61.25,126.867c1.568,0,2.844,3.18,2.844,7.101v36.45c0,3.916-1.275,7.096-2.844,7.096l0,0
						c-1.563,0-2.838-3.18-2.838-7.096v-36.45C58.412,130.047,59.687,126.867,61.25,126.867L61.25,126.867z"/>
					<path fill="#D0E3E5" d="M89.057,126.867c1.574,0,2.838,3.18,2.838,7.101v36.45c0,3.916-1.264,7.096-2.838,7.096l0,0
						c-1.569,0-2.838-3.18-2.838-7.096v-36.45C86.218,130.047,87.488,126.867,89.057,126.867L89.057,126.867z"/>
					<path fill="#D0E3E5" d="M103.141,126.867c1.574,0,2.838,3.18,2.838,7.101v36.45c0,3.916-1.264,7.096-2.838,7.096l0,0
						c-1.563,0-2.838-3.18-2.838-7.096v-36.45C100.303,130.047,101.578,126.867,103.141,126.867L103.141,126.867z"/>
					<path fill="#D0E3E5" d="M130.239,126.867c1.568,0,2.838,3.18,2.838,7.101v36.45c0,3.916-1.27,7.096-2.838,7.096l0,0
						c-1.568,0-2.844-3.18-2.844-7.096v-36.45C127.395,130.047,128.67,126.867,130.239,126.867L130.239,126.867z"/>
					<path fill="#D0E3E5" d="M144.323,126.867c1.563,0,2.838,3.18,2.838,7.101v36.45c0,3.916-1.275,7.096-2.838,7.096l0,0
						c-1.568,0-2.838-3.18-2.838-7.096v-36.45C141.485,130.047,142.755,126.867,144.323,126.867L144.323,126.867z"/>
					<path fill="#D0E3E5" d="M172.834,126.867c1.574,0,2.844,3.18,2.844,7.101v36.45c0,3.916-1.27,7.096-2.844,7.096l0,0
						c-1.563,0-2.833-3.18-2.833-7.096v-36.45C170.002,130.047,171.271,126.867,172.834,126.867L172.834,126.867z"/>
					<path fill="#D0E3E5" d="M186.925,126.867c1.568,0,2.838,3.18,2.838,7.101v36.45c0,3.916-1.27,7.096-2.838,7.096l0,0
						c-1.574,0-2.838-3.18-2.838-7.096v-36.45C184.086,130.047,185.351,126.867,186.925,126.867L186.925,126.867z"/>
					<path fill="#D0E3E5" d="M116.991,126.867c1.563,0,2.838,3.18,2.838,7.101v36.45c0,3.916-1.275,7.096-2.838,7.096l0,0
						c-1.574,0-2.844-3.18-2.844-7.096v-36.45C114.148,130.047,115.417,126.867,116.991,126.867L116.991,126.867z"/>
					<path fill="#D0E3E5" d="M158.878,126.867c1.563,0,2.844,3.18,2.844,7.101v36.45c0,3.916-1.28,7.096-2.844,7.096l0,0
						c-1.568,0-2.844-3.18-2.844-7.096v-36.45C156.034,130.047,157.309,126.867,158.878,126.867L158.878,126.867z"/>	
</g>
    
    <g id="gym" style="display:none">
		<path fill="#F1C089" d="M107.435,85.112c0,0-13.519,61.583,4.508,87.12c0,0,27.039-9.512,45.061,4.505
			c0,0,54.072-51.071,105.14-16.523c0,0,45.061,96.131-42.057,91.623c0,0-16.523,3.006-27.033,3.006
			c0,0-48.064,33.043-111.152,3.004c0,0-19.527-9.014-28.538-10.516c0,0-21.031-3.004-25.534-25.534c0,0-4.508-36.05,1.499-51.068
			c0,0,34.55-72.099,43.562-93.128c0,0,9.011-18.025,12.015-27.036c0,0,7.512-21.029,24.035-21.029c0,0,32.043,0,44.058,4.505
			c0,0,10.265,6.008,11.892,15.395c0,0,2.63,20.279,1.878,29.29c0,0-1.691,9.201-12.394,4.132c0,0-6.008,9.262-14.645,1
			c0,0-4.754,6.509-14.517-1.753c0,0-9.513,7.01-13.269-2.001l-4.508,1.251V85.112z"/>
		
			<path fill="#E1AF82" d="M139.478,186.751c3.495-2.443,7.629-4.009,11.929-4.817c4.311-0.768,8.894-0.718,13.268,0.443
				c4.391,1.104,8.531,3.22,12.084,5.997c3.607,2.729,6.615,6.106,9.192,9.694c0.133,0.189,0.245,0.39,0.32,0.595l0.053,0.131
				c1.745,4.543,3.575,9.219,5.586,13.736c2.012,4.532,4.055,9.051,6.349,13.434c2.246,4.402,4.684,8.712,7.443,12.799
				c2.769,4.081,5.863,7.963,9.881,11.076c-4.786-1.87-8.803-5.397-12.33-9.118c-3.521-3.785-6.541-7.979-9.283-12.308
				c-2.699-4.362-5.17-8.851-7.341-13.474c-2.155-4.644-4.199-9.27-5.879-14.194l0.373,0.723c-2.268-3.284-4.882-6.277-7.8-8.867
				c-2.961-2.545-6.296-4.618-9.95-5.999c-3.671-1.331-7.635-2.041-11.695-1.966C147.62,184.69,143.485,185.375,139.478,186.751z"/>
			<path fill="#E1AF82" d="M97.421,195.763c1.344,7.024,2.369,13.33,4.652,19.025c1.136,2.833,2.555,5.471,4.428,7.925
				c1.851,2.491,4.215,4.7,6.941,7.096c-3.633-0.037-7.24-1.414-10.249-3.724c-3.009-2.315-5.319-5.567-6.695-9.07
				c-1.398-3.508-1.942-7.24-1.798-10.862C94.892,202.538,95.629,198.95,97.421,195.763z"/>
			<path fill="#E1AF82" d="M119.45,245.83c8.104-0.494,15.53-0.723,22.909-1.769c3.676-0.515,7.32-1.136,10.964-2.022
				c3.649-0.883,7.266-2.014,11.188-3.22c-2.491,3.268-5.869,5.789-9.561,7.616c-3.692,1.835-7.709,3.044-11.785,3.577
				c-4.076,0.555-8.216,0.459-12.233-0.187C126.924,249.167,122.966,248.002,119.45,245.83z"/>
			<path fill="#E1AF82" d="M39.343,215.791c1.745,3.956,2.673,6.909,4.017,9.366c0.646,1.232,1.35,2.345,2.299,3.564
				c0.955,1.224,2.193,2.449,3.697,4.092c-2.075,0.806-4.311,0.64-6.397-0.216c-2.065-0.891-3.873-2.601-4.919-4.644
				c-1.078-2.033-1.435-4.3-1.222-6.408C37.075,219.44,37.774,217.402,39.343,215.791z"/>
			<path fill="#E1AF82" d="M107.435,77.602c-2.561-0.139-5.191-0.92-7.512-2.238c-2.337-1.302-4.38-3.132-6.093-5.18
				c-1.713-2.059-3.116-4.351-4.236-6.754c-1.142-2.42-1.979-4.882-2.572-7.565l2.801-0.163c-0.395,3.073-0.955,6.074-1.761,9.054
				c-0.421,1.483-0.875,2.964-1.499,4.388c-0.619,1.406-1.286,2.876-2.411,3.953c0.704-1.358,1.051-2.812,1.334-4.282
				c0.251-1.475,0.48-2.953,0.656-4.441c0.363-2.967,0.651-5.973,0.859-8.928l0.614-8.75l2.182,8.584
				c0.587,2.299,1.499,4.671,2.491,6.904c1.014,2.246,2.225,4.386,3.623,6.394c1.419,1.985,3.057,3.815,4.972,5.359
				C102.799,75.506,104.992,76.701,107.435,77.602z"/>
			<path fill="#E1AF82" d="M125.463,60.058c-0.347,7.304-0.411,14.685-0.251,22.05c-1.158-7.288-2.097-14.602-2.753-22.01
				L125.463,60.058z"/>
			<path fill="#E1AF82" d="M140.732,56.222c0.037,9.278-0.379,18.457-1.003,27.639c-0.379-9.176-0.966-18.38-1.995-27.433
				L140.732,56.222z"/>
			<path fill="#E1AF82" d="M155.5,52.73c0.021,10.078-0.203,20.132-1.126,30.13c-0.075-10.025-0.859-20.025-1.873-29.954
				L155.5,52.73z"/>
			<path fill="#E1AF82" d="M111.943,80.107c-0.267-4.025-0.789-8.032-1.627-11.937c-0.219-0.976-0.453-1.942-0.726-2.897
				l-0.432-1.417c-0.219-0.555-0.027-0.147-0.251-0.251c-1.259,0.093-3.26,1.267-4.716,2.273l-1.521-2.587
				c1.003-0.48,1.953-0.864,2.998-1.206c1.061-0.294,2.059-0.683,3.558-0.462c0.373,0.077,0.854,0.27,1.201,0.688
				c0.181,0.192,0.347,0.589,0.336,0.627c0.091,0.288,0.069,0.299,0.112,0.461l0.293,1.518c0.171,1.014,0.309,2.03,0.421,3.044
				C112.018,72.017,112.103,76.071,111.943,80.107z"/>
			<path fill="#E1AF82" d="M101.545,51.351c4.279-2.737,8.707-4.642,13.279-6.344c4.567-1.667,9.246-2.969,13.973-3.983
				c9.454-2.019,19.111-2.825,28.708-2.726c-9.593,0.4-19.142,1.707-28.356,4.185c-4.61,1.243-9.128,2.761-13.498,4.62
				c-4.327,1.857-8.654,4.036-12.346,6.682L101.545,51.351z"/>
			<path fill="#E1AF82" d="M208.824,165.472c2.187-3.841,6.328-6.296,10.489-7.699c4.236-1.411,8.739-1.827,13.093-1.499
				c4.369,0.309,8.605,1.369,12.607,2.897c3.991,1.534,7.773,3.566,11.124,6.301c-4.3-0.419-8.35-1.15-12.351-1.777
				c-3.996-0.621-7.928-1.126-11.823-1.43c-3.894-0.283-7.757-0.358-11.609,0.061C216.507,162.799,212.65,163.554,208.824,165.472z"
				/>
			<path fill="#E1AF82" d="M111.943,172.232c-4.311,0.894-8.472,2.086-12.244,3.964c-3.809,1.814-7.117,4.321-10.462,7.021
				c-3.302,2.732-6.845,5.639-11.06,7.813c-4.183,2.233-8.963,3.327-13.589,3.703c-1.632,0.133-3.062-1.083-3.196-2.715
				c-0.064-0.774,0.176-1.505,0.624-2.07l0.117-0.152c2.545-3.228,5.042-7.338,7.085-11.366c2.177-4.044,4.017-8.288,5.799-12.578
				c1.734-4.306,3.356-8.691,4.828-13.146c1.537-4.444,2.86-8.971,4.306-13.519c-0.075,4.775-0.629,9.518-1.36,14.248
				c-0.795,4.716-1.857,9.403-3.26,14.01c-1.36,4.623-3.132,9.128-5.154,13.548c-2.203,4.399-4.375,8.579-7.752,12.727l-2.454-4.938
				c4.065-0.211,7.928-1.163,11.577-2.777c3.676-1.598,7.075-4.081,10.793-6.482c3.665-2.462,7.773-4.695,12.132-5.981
				C103.044,172.269,107.558,171.861,111.943,172.232z"/>

</g>
    
    <g id="work" style="display:none">
	<path fill-rule="evenodd" clip-rule="evenodd" fill="#DAECEF" d="M129.717,67.075c12.847,0,25.934-12.148,25.934-25.001
		c0-12.836-12.463-25.915-25.315-25.915c-12.842,0-25.614,13.394-25.614,26.23C104.722,55.241,116.865,67.075,129.717,67.075z
		 M180.321,102.921c0-12.607,0.832-11.396,0-19.276c-3.217-9.635-9.641-12.842-16.064-12.842c-13.727,0-18.289,0-28.9,0
		c-12.895,0-19.159-0.037-32.011-0.037c-6.424,0-10.606-0.437-15.376,3.905c-6.488,7.352-5.842,8.008-5.842,28.565
		c0,10.147,0,27.881,0,39.219c0,10.142-1.718,25.929,8.451,25.929c9.635,0,9.55-6.872,9.55-17.131
		c0-14.469-0.037-18.225-0.037-26.777c0-9.358-0.539-10.942,1.344-10.942c1.899,0,1.883,0.123,1.883,10.062
		c0,9.198-0.069,138.847-0.069,146.338c0,6.423,3.42,13.295,13.092,13.295c9.646,0,13.674-5.634,13.674-12.068
		c0-11.572,0-61.962,0-67.442c0-6.429,0.219-9.534,1.803-9.534c1.622,0,1.403,3.105,1.403,9.534c0,5.794,0,55.576,0,67.442
		c0,3.991,4.241,12.682,13.882,12.682c6.418,0,12.33-8.264,12.33-12.548c0-25.678,0.144-139.999,0.144-148.087
		c0-4.375-0.373-9.95,1.264-9.95s1.611,1.515,1.611,7.821c0,7.25,0,14.592,0,24.739c0,16.896,2.625,21.341,9.048,21.341
		c9.635,0,8.819-16.502,8.819-25.694C180.321,128.93,180.321,115.662,180.321,102.921z"/>
	
			<rect x="126.025" y="188.449" fill-rule="evenodd" clip-rule="evenodd" fill="#3F3E3D" width="91.957" height="24.045"/>
			
				<path fill-rule="evenodd" clip-rule="evenodd" fill="#827159" d="M126.041,189.783c0,0,26.18,10.291,45.775,10.291
					c21.41,0,46.154-10.387,46.154-10.387v-12.66c0-6.423-6.327-6.135-6.327-6.135h-79.595c-6.231,0-6.007,6.135-6.007,6.135
					V189.783z M178.08,197.071l-12.372-0.096c0,0,0.096-1.371,0.096-3.068c0-1.697,1.376-3.073,3.068-3.073h6.141
					c1.697,0,3.068,1.376,3.068,3.073C178.08,195.603,178.08,197.071,178.08,197.071z M217.971,222.93v-29.695
					c0,0-19.916,9.939-46.288,9.939c-24.259,0-45.642-10.227-45.642-10.227v29.983c0,6.232,5.911,6.141,5.911,6.141h79.787
					C218.35,229.071,217.971,222.93,217.971,222.93z M177.979,209.347c0,1.691-1.371,2.966-3.062,2.966h-6.141
					c-1.691,0-3.068-1.275-3.068-2.966c0-1.702,0-3.169,0-3.169l12.372-0.096C178.08,206.082,177.979,207.645,177.979,209.347z"/>
			
			
				<path fill-rule="evenodd" clip-rule="evenodd" fill="#5B4F3F" d="M126.041,189.783c0,0,26.18,10.291,45.775,10.291
					c21.41,0,46.154-10.387,46.154-10.387v-12.66c0-6.423-6.327-6.135-6.327-6.135h-79.595c-6.231,0-6.007,6.135-6.007,6.135
					V189.783z M178.08,197.071l-12.372-0.096c0,0,0.096-1.371,0.096-3.068c0-1.697,1.376-3.073,3.068-3.073h6.141
					c1.697,0,3.068,1.376,3.068,3.073C178.08,195.603,178.08,197.071,178.08,197.071z"/>
			
		
		<path fill-rule="evenodd" clip-rule="evenodd" fill="#3F3E3D" d="M187.187,170.891v-6.231c0-6.333-5.943-6.039-5.943-6.039H162.64
			c-5.847,0-6.045,6.141-6.045,6.141v6.13H187.187z M162.64,167.626c0-2.774,3.068-2.966,3.068-2.966h12.372
			c3.26,0,3.068,3.351,3.068,3.351l-0.096,2.881H162.64V167.626z"/>
	
</g>
    
    <g id="stress" style="display:none">
			<path fill="#FF0000" opacity="0.51" d="M10,150.002C10,72.677,72.681,10,149.998,10C227.319,10,290,72.677,290,150.002
				C290,227.319,227.319,290,149.998,290C72.681,290,10,227.319,10,150.002z"/>
		
	
	
		
			<path fill="#333333" d="M73.16,60.813c14.852,11.117,29.706,22.235,44.558,33.352c5.712,4.275,11.212-5.327,5.578-9.544
				C108.445,73.504,93.59,62.387,78.738,51.269C73.026,46.994,67.526,56.596,73.16,60.813L73.16,60.813z"/>
		
	
	
		
			<path fill="#333333" d="M220.506,51.269c-14.852,11.117-29.706,22.235-44.558,33.352c-5.634,4.217-0.134,13.819,5.578,9.544
				c14.852-11.117,29.706-22.235,44.558-33.352C231.719,56.596,226.218,46.994,220.506,51.269L220.506,51.269z"/>
		
	
	
		<circle fill="#333333" cx="107.46" cy="101.719" r="21.987"/>
	
	
		<circle fill="#333333" cx="190.584" cy="101.719" r="21.987"/>
	
	
		
			
				<path fill="#FFFFFF" d="M241.904,233.161c0-50.754-41.145-91.901-91.901-91.901c-50.756,0-91.901,41.147-91.901,91.901H241.904z
					"/>
			
		
		
			<path fill="#CCCBCB" d="M190.897,233.161c0-27.433,0-54.866,0-82.299c-3.558-1.772-7.249-3.314-11.053-4.62
				c0,28.974,0,57.947,0,86.919H190.897z"/>
		
		
			<path fill="#CCCBCB" d="M122.612,233.161c0-29.249,0-58.497,0-87.748c-3.799,1.185-7.482,2.631-11.053,4.279
				c0,27.824,0,55.646,0,83.469H122.612z"/>	
</g>
    
</svg>
